<?xml version="1.0" encoding="utf-8"?>
<!-- Generator: Adobe Illustrator 18.1.1, SVG Export Plug-In . SVG Version: 6.00 Build 0)  -->
<svg version="1.1" id="圖層_1" xmlns="http://www.w3.org/2000/svg" xmlns:xlink="http://www.w3.org/1999/xlink" x="0px" y="0px"
	 viewBox="0 0 328 335.9" enable-background="new 0 0 328 335.9" xml:space="preserve">
<g>
	<g>
		<g>
			<path fill="#5B7500" d="M20.9,263.9c0-1.3-0.1-2.6-0.2-3.8c0.3,0,0.7,0.1,1.1,0.1c0.4,0,0.8,0,1.3,0s0.9,0,1.3,0
				c0.4,0,0.8-0.1,1.1-0.1c-0.1,1.3-0.1,2.6-0.2,3.8c0,1.3-0.1,2.7-0.1,4.4v4c0,1.1,0,2.2,0,3.3c0,1,0,2,0,2.7c1.1,0,2.3,0,3.4-0.1
				c1.1-0.1,2.3-0.2,3.4-0.3c0,0.2-0.1,0.4-0.1,0.6c0,0.2,0,0.4,0,0.7c0,0.3,0,0.6,0,0.7c0,0.2,0,0.3,0.1,0.4c-0.5,0-1.2,0-2,0
				c-0.8,0-1.9,0-3.2,0c-1.2,0-2.2,0-2.9,0c-0.7,0-1.3,0-1.8,0c-0.4,0-0.8,0-1,0c-0.2,0-0.4,0-0.6,0c0.1-1.2,0.1-2.5,0.2-3.8
				c0-1.3,0.1-2.7,0.1-4.4v-4C21,266.7,20.9,265.2,20.9,263.9z"/>
			<path fill="#5B7500" d="M53.3,280.5c-0.5,0-0.9-0.1-1.3-0.1c-0.4,0-0.8,0-1.3,0s-0.8,0-1.3,0c-0.4,0-0.8,0-1.3,0.1
				c-0.3-1-0.6-2-1-3c-0.3-1-0.7-2-1.1-3c-0.6,0-1.3,0-1.9,0c-0.6,0-1.3,0-1.9,0c-0.5,0-1,0-1.5,0c-0.5,0-1,0-1.5,0
				c-0.4,1-0.8,2-1.1,3c-0.3,1-0.6,2-0.9,3c-0.2,0-0.5-0.1-0.7-0.1c-0.2,0-0.5,0-0.7,0c-0.2,0-0.5,0-0.7,0c-0.2,0-0.5,0-0.8,0.1
				c0.2-0.5,0.6-1.2,0.9-2.1c0.4-0.9,0.8-1.9,1.3-3.1c0.5-1.1,1-2.4,1.5-3.7c0.5-1.3,1.1-2.6,1.6-4c0.5-1.3,1.1-2.7,1.6-4
				c0.5-1.3,1-2.5,1.4-3.7c0.2,0,0.4,0.1,0.6,0.1c0.2,0,0.4,0,0.6,0c0.2,0,0.4,0,0.6,0c0.2,0,0.4-0.1,0.6-0.1c0.6,1.7,1.3,3.5,2,5.4
				c0.7,1.9,1.5,3.8,2.2,5.7c0.7,1.9,1.4,3.6,2.1,5.3C52.1,277.9,52.7,279.3,53.3,280.5z M42.8,265.7c-0.5,1.2-1,2.4-1.5,3.5
				c-0.5,1.2-0.9,2.3-1.3,3.5h5.4c-0.4-1.2-0.9-2.4-1.3-3.5C43.7,268,43.3,266.8,42.8,265.7z"/>
			<path fill="#5B7500" d="M57.3,262.5c0-0.9-0.1-1.8-0.1-2.5c0.6,0.1,1,0.1,1.3,0.1c0.3,0,0.8,0,1.3-0.1c2.2,2.4,4.3,4.8,6.4,7.1
				c2.1,2.3,4.3,4.7,6.5,7.1v-2.6v-2.9c0-1,0-1.9,0-2.9c0-0.9,0-1.8,0-2.6c0-0.8,0-1.5-0.1-2c0-0.6-0.1-1-0.1-1.2
				c0.6,0.1,1,0.1,1.3,0.1c0.3,0,0.8,0,1.3-0.1c-0.1,1.8-0.2,3.4-0.2,4.9c-0.1,1.5-0.1,2.8-0.1,4.1c0,1.3-0.1,2.6-0.1,3.8
				c0,1.3,0,2.6,0,4v3.6c-0.4,0-0.8-0.1-1.2-0.1c-0.4,0-0.8,0-1.2,0.1c-4.1-4.8-8.4-9.5-13-14.3c0,0.6,0,1.1,0,1.7
				c0,0.6,0,1.2,0,1.8v3.4c0,1.2,0,2.2,0,3c0,0.8,0,1.5,0,2.1c0,0.6,0,1,0.1,1.4c0,0.4,0,0.7,0.1,0.9c-0.2,0-0.5-0.1-0.7-0.1
				c-0.2,0-0.5,0-0.7,0c-0.5,0-0.9,0-1.4,0.1c0-0.2,0.1-0.7,0.1-1.7c0.1-1,0.1-2.2,0.2-3.5c0.1-1.4,0.1-2.9,0.2-4.5
				c0-1.6,0.1-3.2,0.1-4.7C57.4,264.6,57.3,263.5,57.3,262.5z"/>
			<path fill="#5B7500" d="M95.5,262.3c-1-0.5-2.1-0.8-3.5-0.8c-0.9,0-1.8,0.2-2.7,0.6c-0.9,0.4-1.7,1-2.4,1.7
				c-0.7,0.8-1.3,1.7-1.7,2.9c-0.4,1.2-0.7,2.5-0.7,4.1c0,1.2,0.2,2.3,0.5,3.3c0.3,1,0.8,1.9,1.4,2.6c0.6,0.7,1.4,1.3,2.3,1.7
				c0.9,0.4,1.9,0.6,3.1,0.6c0.3,0,0.6,0,0.9,0c0.3,0,0.6-0.1,1-0.1c0.3,0,0.6-0.1,0.8-0.2c0.3-0.1,0.4-0.1,0.6-0.2
				c0-0.2,0.1-0.5,0.1-0.9c0-0.4,0-0.8,0-1.2c0-1.6,0-2.8-0.1-3.6c-0.1-0.8-0.1-1.3-0.1-1.6c0.2,0,0.5,0.1,0.8,0.1
				c0.3,0,0.8,0,1.4,0c0.7,0,1.2,0,1.6,0c0.3,0,0.6-0.1,0.8-0.1c0,0.2-0.1,0.4-0.1,0.8c0,0.4-0.1,0.8-0.1,1.2c0,0.5,0,1,0,1.5
				c0,0.5,0,1,0,1.5v1c0,0.5,0,1,0,1.4c0,0.4,0,0.7,0.1,0.9c-1.3,0.4-2.6,0.7-4,0.9c-1.3,0.2-2.7,0.3-4,0.3c-1.7,0-3.3-0.2-4.7-0.7
				c-1.4-0.4-2.7-1.1-3.7-2c-1-0.9-1.9-1.9-2.4-3.1c-0.6-1.2-0.9-2.6-0.9-4.1c0-1.9,0.3-3.5,0.9-4.9c0.6-1.4,1.5-2.6,2.6-3.5
				c1.1-0.9,2.4-1.6,3.9-2.1c1.5-0.5,3.1-0.7,4.9-0.7c1.5,0,2.8,0.2,3.9,0.5c1.1,0.3,2.2,0.7,3.3,1.3c-0.2,0.5-0.3,1-0.5,1.5
				c-0.1,0.5-0.3,1-0.4,1.5h-0.4C97.3,263.6,96.5,262.9,95.5,262.3z"/>
			<path fill="#5B7500" d="M110.3,280.5c-1.1-0.3-2.1-0.7-2.9-1.3c-0.8-0.6-1.5-1.4-1.9-2.4c-0.5-1-0.7-2.2-0.7-3.6
				c0-0.8,0-1.5,0-2.1c0-0.6,0-1.2,0-1.7c0-0.5,0-1,0-1.5c0-0.5,0-1,0-1.5c0-1.6,0-2.9,0-3.9c0-1-0.1-1.7-0.1-2.2
				c0.4,0,0.8,0.1,1.2,0.1c0.4,0,0.8,0,1.2,0c0.4,0,0.8,0,1.2,0c0.4,0,0.8-0.1,1.2-0.1c-0.2,1.9-0.3,3.7-0.4,5.4
				c0,1.7-0.1,3.3-0.1,5c0,1.8,0.1,3.3,0.4,4.4c0.3,1.1,0.6,2,1.1,2.6c0.5,0.6,1.1,1,1.9,1.2c0.7,0.2,1.6,0.3,2.6,0.3
				c1.2,0,2.1-0.3,2.8-0.9c0.7-0.6,1.2-1.4,1.5-2.4c0.3-1,0.6-2.1,0.6-3.4c0.1-1.3,0.1-2.6,0.1-4c0-1.4,0-2.7-0.1-4.1
				c0-1.4-0.1-2.7-0.2-4.1c0.3,0,0.5,0.1,0.8,0.1c0.3,0,0.5,0,0.7,0c0.3,0,0.5,0,0.7,0c0.2,0,0.5-0.1,0.7-0.1c0,0.4-0.1,1-0.1,1.8
				c0,0.7-0.1,1.6-0.1,2.5c0,1-0.1,2-0.1,3.2c0,1.2,0,2.4,0,3.7c0,3.4-0.7,5.9-2.2,7.4c-1.5,1.5-3.7,2.2-6.5,2.2
				C112.6,280.9,111.4,280.7,110.3,280.5z"/>
			<path fill="#5B7500" d="M145.4,280.5c-0.5,0-0.9-0.1-1.3-0.1c-0.4,0-0.8,0-1.3,0c-0.4,0-0.8,0-1.3,0c-0.4,0-0.8,0-1.3,0.1
				c-0.3-1-0.6-2-1-3c-0.3-1-0.7-2-1.1-3c-0.6,0-1.3,0-1.9,0c-0.6,0-1.3,0-1.9,0c-0.5,0-1,0-1.5,0c-0.5,0-1,0-1.5,0
				c-0.4,1-0.8,2-1.1,3c-0.3,1-0.6,2-0.9,3c-0.2,0-0.5-0.1-0.7-0.1c-0.2,0-0.5,0-0.7,0c-0.2,0-0.5,0-0.7,0c-0.2,0-0.5,0-0.8,0.1
				c0.2-0.5,0.6-1.2,0.9-2.1c0.4-0.9,0.8-1.9,1.3-3.1c0.5-1.1,1-2.4,1.5-3.7c0.5-1.3,1.1-2.6,1.6-4c0.5-1.3,1.1-2.7,1.6-4
				c0.5-1.3,1-2.5,1.4-3.7c0.2,0,0.4,0.1,0.6,0.1c0.2,0,0.4,0,0.6,0c0.2,0,0.4,0,0.6,0c0.2,0,0.4-0.1,0.6-0.1c0.6,1.7,1.3,3.5,2,5.4
				c0.7,1.9,1.5,3.8,2.2,5.7c0.7,1.9,1.4,3.6,2.1,5.3C144.2,277.9,144.8,279.3,145.4,280.5z M134.9,265.7c-0.5,1.2-1,2.4-1.5,3.5
				c-0.5,1.2-0.9,2.3-1.3,3.5h5.4c-0.4-1.2-0.9-2.4-1.3-3.5C135.8,268,135.4,266.8,134.9,265.7z"/>
			<path fill="#5B7500" d="M163.8,262.3c-1-0.5-2.1-0.8-3.5-0.8c-0.9,0-1.8,0.2-2.7,0.6c-0.9,0.4-1.7,1-2.4,1.7
				c-0.7,0.8-1.3,1.7-1.7,2.9c-0.4,1.2-0.7,2.5-0.7,4.1c0,1.2,0.2,2.3,0.5,3.3c0.3,1,0.8,1.9,1.4,2.6c0.6,0.7,1.4,1.3,2.3,1.7
				c0.9,0.4,1.9,0.6,3.1,0.6c0.3,0,0.6,0,0.9,0c0.3,0,0.6-0.1,1-0.1c0.3,0,0.6-0.1,0.8-0.2c0.3-0.1,0.4-0.1,0.6-0.2
				c0-0.2,0.1-0.5,0.1-0.9c0-0.4,0-0.8,0-1.2c0-1.6,0-2.8-0.1-3.6c-0.1-0.8-0.1-1.3-0.1-1.6c0.2,0,0.5,0.1,0.8,0.1
				c0.3,0,0.8,0,1.4,0c0.7,0,1.2,0,1.6,0c0.3,0,0.6-0.1,0.8-0.1c0,0.2-0.1,0.4-0.1,0.8c0,0.4-0.1,0.8-0.1,1.2c0,0.5,0,1,0,1.5
				c0,0.5,0,1,0,1.5v1c0,0.5,0,1,0,1.4c0,0.4,0,0.7,0.1,0.9c-1.3,0.4-2.6,0.7-4,0.9c-1.3,0.2-2.7,0.3-4,0.3c-1.7,0-3.3-0.2-4.7-0.7
				c-1.4-0.4-2.7-1.1-3.7-2c-1-0.9-1.9-1.9-2.4-3.1c-0.6-1.2-0.9-2.6-0.9-4.1c0-1.9,0.3-3.5,0.9-4.9c0.6-1.4,1.5-2.6,2.6-3.5
				c1.1-0.9,2.4-1.6,3.9-2.1c1.5-0.5,3.1-0.7,4.9-0.7c1.5,0,2.8,0.2,3.9,0.5c1.1,0.3,2.2,0.7,3.3,1.3c-0.2,0.5-0.3,1-0.5,1.5
				c-0.1,0.5-0.3,1-0.4,1.5h-0.4C165.5,263.6,164.7,262.9,163.8,262.3z"/>
			<path fill="#5B7500" d="M172.7,263.9c0-1.3-0.1-2.6-0.2-3.8c0.9,0,1.8,0,2.6,0.1c0.9,0,1.8,0.1,2.6,0.1c1.5,0,2.8,0,3.9,0
				c1.1,0,1.9-0.1,2.3-0.1c-0.1,0.3-0.1,0.7-0.1,1.2c0,0.3,0,0.6,0,0.7c0,0.2,0,0.4,0.1,0.6c-0.6,0-1.2-0.1-1.9-0.1
				c-0.7,0-1.3-0.1-2-0.1c-0.6,0-1.2-0.1-1.7-0.1c-0.5,0-0.9,0-1.1,0c-0.1,1.1-0.1,2.2-0.1,3.2c0,1.1,0,2.1,0,3.2
				c1.3,0,2.5,0,3.5-0.1c1,0,2.1-0.1,3.2-0.2c-0.1,0.3-0.1,0.6-0.1,0.8c0,0.2,0,0.4,0,0.6c0,0.2,0,0.3,0,0.5c0,0.2,0.1,0.4,0.1,0.7
				c-2.3-0.2-4.5-0.3-6.7-0.3c0,0.6,0,1.3,0,1.9c0,0.6,0,1.3,0,1.9c0,1.3,0,2.5,0.1,3.7c1.1,0,2.3,0,3.4-0.1
				c1.1-0.1,2.3-0.2,3.4-0.3c0,0.2-0.1,0.4-0.1,0.6c0,0.2,0,0.4,0,0.7c0,0.3,0,0.6,0,0.7c0,0.2,0,0.3,0.1,0.4c-0.5,0-1.2,0-2,0
				c-0.8,0-1.9,0-3.2,0c-1.2,0-2.2,0-2.9,0c-0.7,0-1.3,0-1.8,0c-0.4,0-0.8,0-1,0c-0.2,0-0.4,0-0.6,0c0.1-1.2,0.1-2.5,0.2-3.8
				c0-1.3,0.1-2.7,0.1-4.4v-4C172.8,266.7,172.7,265.2,172.7,263.9z"/>
			<path fill="#5B7500" d="M213.3,278.4c-0.1,0.4-0.2,0.8-0.2,1.3c-1.6,0.8-3.6,1.2-6.1,1.2c-1.7,0-3.3-0.2-4.6-0.7
				c-1.4-0.5-2.5-1.2-3.4-2.1c-0.9-0.9-1.7-1.9-2.2-3.1c-0.5-1.2-0.7-2.5-0.7-3.9c0-2.1,0.3-3.8,1-5.2c0.6-1.4,1.5-2.6,2.6-3.5
				c1.1-0.9,2.3-1.6,3.8-2c1.4-0.4,2.9-0.6,4.5-0.6c0.5,0,1.1,0,1.6,0.1c0.6,0.1,1.1,0.2,1.7,0.3c0.5,0.1,1,0.3,1.5,0.5
				c0.5,0.2,0.9,0.4,1.2,0.6c-0.2,0.5-0.4,1-0.5,1.5c-0.1,0.5-0.2,1-0.2,1.5h-0.4c-0.8-1-1.5-1.6-2.3-2c-0.8-0.4-1.7-0.6-2.8-0.6
				c-0.8,0-1.6,0.2-2.4,0.5c-0.8,0.4-1.5,0.9-2.2,1.6c-0.7,0.7-1.2,1.7-1.6,2.8c-0.4,1.1-0.6,2.5-0.6,4.1c0,1.5,0.2,2.8,0.6,3.9
				c0.4,1.1,1,2,1.6,2.6c0.7,0.7,1.4,1.2,2.3,1.5c0.8,0.3,1.7,0.5,2.5,0.5c0.5,0,1-0.1,1.5-0.2c0.5-0.1,1-0.3,1.5-0.4
				c0.5-0.2,0.9-0.4,1.4-0.7c0.4-0.3,0.8-0.6,1.1-0.9l0.4,0.2C213.5,277.5,213.4,278,213.3,278.4z"/>
			<path fill="#5B7500" d="M217.8,263.9c0-1.3-0.1-2.6-0.2-3.8c0.9,0,1.8,0,2.6,0.1c0.9,0,1.8,0.1,2.6,0.1c1.5,0,2.8,0,3.9,0
				c1.1,0,1.9-0.1,2.3-0.1c-0.1,0.3-0.1,0.7-0.1,1.2c0,0.3,0,0.6,0,0.7c0,0.2,0,0.4,0.1,0.6c-0.6,0-1.2-0.1-1.9-0.1
				c-0.7,0-1.3-0.1-2-0.1c-0.6,0-1.2-0.1-1.7-0.1c-0.5,0-0.9,0-1.1,0c-0.1,1.1-0.1,2.2-0.1,3.2c0,1.1,0,2.1,0,3.2
				c1.3,0,2.5,0,3.5-0.1c1,0,2.1-0.1,3.3-0.2c-0.1,0.3-0.1,0.6-0.1,0.8c0,0.2,0,0.4,0,0.6c0,0.2,0,0.3,0,0.5c0,0.2,0.1,0.4,0.1,0.7
				c-2.3-0.2-4.5-0.3-6.7-0.3c0,0.6,0,1.3,0,1.9c0,0.6,0,1.3,0,1.9c0,1.3,0,2.5,0.1,3.7c1.1,0,2.3,0,3.4-0.1
				c1.1-0.1,2.3-0.2,3.4-0.3c0,0.2-0.1,0.4-0.1,0.6c0,0.2,0,0.4,0,0.7c0,0.3,0,0.6,0,0.7c0,0.2,0,0.3,0.1,0.4c-0.5,0-1.2,0-2,0
				c-0.8,0-1.9,0-3.2,0c-1.2,0-2.2,0-2.9,0c-0.7,0-1.3,0-1.8,0s-0.8,0-1,0c-0.2,0-0.4,0-0.6,0c0.1-1.2,0.1-2.5,0.2-3.8
				c0-1.3,0.1-2.7,0.1-4.4v-4C217.9,266.7,217.9,265.2,217.8,263.9z"/>
			<path fill="#5B7500" d="M234,262.5c0-0.9-0.1-1.8-0.1-2.5c0.6,0.1,1,0.1,1.3,0.1c0.3,0,0.8,0,1.3-0.1c2.2,2.4,4.3,4.8,6.4,7.1
				c2.1,2.3,4.3,4.7,6.5,7.1v-2.6v-2.9c0-1,0-1.9,0-2.9c0-0.9,0-1.8,0-2.6c0-0.8,0-1.5-0.1-2c0-0.6-0.1-1-0.1-1.2
				c0.6,0.1,1,0.1,1.3,0.1c0.3,0,0.8,0,1.3-0.1c-0.1,1.8-0.2,3.4-0.2,4.9c-0.1,1.5-0.1,2.8-0.1,4.1c0,1.3-0.1,2.6-0.1,3.8
				c0,1.3,0,2.6,0,4v3.6c-0.4,0-0.8-0.1-1.2-0.1c-0.4,0-0.8,0-1.2,0.1c-4.1-4.8-8.4-9.5-13-14.3c0,0.6,0,1.1,0,1.7
				c0,0.6,0,1.2,0,1.8v3.4c0,1.2,0,2.2,0,3c0,0.8,0,1.5,0,2.1c0,0.6,0,1,0.1,1.4c0,0.4,0,0.7,0.1,0.9c-0.2,0-0.5-0.1-0.7-0.1
				c-0.2,0-0.5,0-0.7,0c-0.5,0-0.9,0-1.4,0.1c0-0.2,0.1-0.7,0.1-1.7c0.1-1,0.1-2.2,0.2-3.5c0.1-1.4,0.1-2.9,0.2-4.5
				c0-1.6,0.1-3.2,0.1-4.7C234.1,264.6,234,263.5,234,262.5z"/>
			<path fill="#5B7500" d="M261.1,263.3c0-0.5,0-0.8-0.1-1c-0.3,0-0.7,0-1.1,0c-0.4,0-0.9,0-1.4,0.1c-0.5,0-1,0.1-1.5,0.1
				c-0.5,0-1,0.1-1.4,0.2c0-0.2,0.1-0.4,0.1-0.7c0-0.2,0-0.4,0-0.7s0-0.4,0-0.7c0-0.2-0.1-0.4-0.1-0.7c0.7,0,1.3,0,1.8,0.1
				c0.5,0,1.1,0,1.7,0c0.6,0,1.2,0,1.8,0c0.7,0,1.5,0,2.4,0c0.9,0,1.7,0,2.4,0c0.7,0,1.3,0,1.8,0c0.6,0,1.1,0,1.6,0
				c0.5,0,1.1,0,1.7-0.1c0,0.2-0.1,0.4-0.1,0.7c0,0.2,0,0.4,0,0.7s0,0.4,0,0.7c0,0.2,0.1,0.4,0.1,0.7c-0.4-0.1-0.8-0.1-1.3-0.2
				c-0.5,0-1-0.1-1.5-0.1c-0.5,0-0.9-0.1-1.4-0.1c-0.4,0-0.8,0-1.1,0c0,0.1,0,0.2,0,0.4c0,0.2,0,0.4,0,0.6v1.6v7.4
				c0,1.6,0,3.1,0.1,4.4c0,1.3,0.1,2.5,0.2,3.8c-0.3,0-0.7-0.1-1.1-0.1c-0.4,0-0.8,0-1.3,0c-0.5,0-0.9,0-1.3,0c-0.4,0-0.8,0-1.1,0.1
				c0.1-1.2,0.1-2.5,0.2-3.8c0-1.3,0.1-2.7,0.1-4.4v-7.4C261.1,264.3,261.1,263.8,261.1,263.3z"/>
			<path fill="#5B7500" d="M274.5,263.9c0-1.3-0.1-2.6-0.2-3.8c0.9,0,1.8,0,2.6,0.1c0.9,0,1.8,0.1,2.6,0.1c1.5,0,2.8,0,3.9,0
				c1.1,0,1.9-0.1,2.3-0.1c-0.1,0.3-0.1,0.7-0.1,1.2c0,0.3,0,0.6,0,0.7c0,0.2,0,0.4,0.1,0.6c-0.6,0-1.2-0.1-1.9-0.1
				c-0.7,0-1.3-0.1-2-0.1c-0.6,0-1.2-0.1-1.7-0.1c-0.5,0-0.9,0-1.1,0c-0.1,1.1-0.1,2.2-0.1,3.2c0,1.1,0,2.1,0,3.2
				c1.3,0,2.5,0,3.5-0.1c1,0,2.1-0.1,3.3-0.2c-0.1,0.3-0.1,0.6-0.1,0.8c0,0.2,0,0.4,0,0.6c0,0.2,0,0.3,0,0.5c0,0.2,0.1,0.4,0.1,0.7
				c-2.3-0.2-4.5-0.3-6.7-0.3c0,0.6,0,1.3,0,1.9c0,0.6,0,1.3,0,1.9c0,1.3,0,2.5,0.1,3.7c1.1,0,2.3,0,3.4-0.1
				c1.1-0.1,2.3-0.2,3.4-0.3c0,0.2-0.1,0.4-0.1,0.6c0,0.2,0,0.4,0,0.7c0,0.3,0,0.6,0,0.7c0,0.2,0,0.3,0.1,0.4c-0.5,0-1.2,0-2,0
				c-0.8,0-1.9,0-3.2,0c-1.2,0-2.2,0-2.9,0c-0.7,0-1.3,0-1.8,0c-0.4,0-0.8,0-1,0c-0.2,0-0.4,0-0.6,0c0.1-1.2,0.1-2.5,0.2-3.8
				c0-1.3,0.1-2.7,0.1-4.4v-4C274.6,266.7,274.6,265.2,274.5,263.9z"/>
			<path fill="#5B7500" d="M294.9,271.1v1.2c0,1.6,0,3.1,0.1,4.4c0,1.3,0.1,2.5,0.2,3.8c-0.3,0-0.7-0.1-1.1-0.1c-0.4,0-0.8,0-1.3,0
				c-0.5,0-0.9,0-1.3,0c-0.4,0-0.8,0-1.1,0.1c0.1-1.2,0.1-2.5,0.2-3.8c0-1.3,0.1-2.7,0.1-4.4v-4c0-1.6,0-3.1-0.1-4.4
				c0-1.3-0.1-2.6-0.2-3.8c0.3,0,0.7,0.1,1.1,0.1c0.4,0,0.8,0,1.3,0c0.5,0,1.1,0,1.8-0.1c0.7,0,1.5-0.1,2.5-0.1c0.8,0,1.4,0,1.9,0.1
				c0.5,0,1,0.1,1.4,0.2c0.4,0.1,0.7,0.2,1,0.3c0.3,0.1,0.6,0.3,0.8,0.5c0.6,0.4,1.1,1,1.4,1.6c0.3,0.6,0.5,1.4,0.5,2.3
				c0,1.4-0.4,2.6-1.2,3.5c-0.8,0.9-1.9,1.6-3.4,1.9c0.9,1.7,2,3.4,3.1,5c1.1,1.7,2.2,3.3,3.3,5c-0.5,0-0.9-0.1-1.3-0.1
				s-0.9,0-1.3,0c-0.5,0-0.9,0-1.4,0c-0.4,0-0.9,0-1.4,0.1l-5.3-9.4H294.9z M299.3,263.6c-0.2-0.5-0.5-0.9-0.8-1.2
				c-0.4-0.3-0.8-0.4-1.4-0.5c-0.6-0.1-1.3-0.1-2.1-0.1c-0.1,2.7-0.1,5.4-0.1,8.1c0.1,0,0.2,0,0.3,0c0.1,0,0.2,0,0.3,0
				c1.3,0,2.3-0.4,3-1.1c0.7-0.7,1-1.8,1-3.2C299.6,264.8,299.5,264.1,299.3,263.6z"/>
		</g>
	</g>
	<g>
		<g>
			<path fill-rule="evenodd" clip-rule="evenodd" fill="#A57536" d="M316.5,180.6c-1.9,5.9-14.6,10-16.8,1.7
				C302.8,176.2,311.5,177.9,316.5,180.6z"/>
			<path fill-rule="evenodd" clip-rule="evenodd" fill="#83A80D" d="M310.8,200.1c-8.6,6.7-26.1,7-28-5.7
				C291.8,184.1,305.7,193,310.8,200.1z"/>
			<path fill-rule="evenodd" clip-rule="evenodd" fill="#83A80D" d="M304.2,162c-0.5,10.9-11.2,22.8-22.9,16.4
				C280.6,166.1,290.1,162.1,304.2,162z"/>
			<path fill-rule="evenodd" clip-rule="evenodd" fill="#A57536" d="M304.4,221.5c-6,1-9.2-1.3-12.6-3.5c-0.1-3.9-1.6-3.5-0.6-6.6
				C297.8,208.5,303.2,214.5,304.4,221.5z"/>
			<path fill-rule="evenodd" clip-rule="evenodd" fill="#A57536" d="M294,144.1c0.4,7.7-0.8,14.2-8.9,15.1
				C280.7,151.4,287.5,145.8,294,144.1z"/>
			<path fill-rule="evenodd" clip-rule="evenodd" fill="#83A80D" d="M287.3,229.8c-10.9-0.7-22.5-11.2-16.4-22.9
				C283.9,205.3,286.9,216,287.3,229.8z"/>
			<path fill-rule="evenodd" clip-rule="evenodd" fill="#83A80D" d="M268.8,166.4c-11.9-5.6-4.4-23.6,4.9-26.9
				C279.4,147.7,280.1,164.8,268.8,166.4z"/>
			<path fill-rule="evenodd" clip-rule="evenodd" fill="#A57536" d="M256.8,150.6c-7.5-0.4-5.4-11.3-3.4-15.7
				C259.5,134.8,262.9,148.1,256.8,150.6z"/>
			<path fill-rule="evenodd" clip-rule="evenodd" fill="#83A80D" d="M251.1,169.1c-12.9,1.4-16.1-9-16.4-22.9
				C245.7,146.8,257.2,157.2,251.1,169.1z"/>
			<path fill-rule="evenodd" clip-rule="evenodd" fill="#A57536" d="M231.8,165.3c-7.6,3.8-12.7-3-14.2-9.9
				C225.5,154.9,231.4,156.8,231.8,165.3z"/>
		</g>
		<g>
			<path fill-rule="evenodd" clip-rule="evenodd" fill="#A57536" d="M15.2,46.9c0.6,6.2,12,12.9,16.1,5.3
				C29.5,45.5,20.7,45.3,15.2,46.9z"/>
			<path fill-rule="evenodd" clip-rule="evenodd" fill="#83A80D" d="M16.5,67.1c6.9,8.4,23.9,12.5,28.5,0.5
				C38.6,55.6,23,61.3,16.5,67.1z"/>
			<path fill-rule="evenodd" clip-rule="evenodd" fill="#83A80D" d="M31.2,31.4c-1.9,10.8,6,24.7,18.8,21
				C53.4,40.5,45,34.6,31.2,31.4z"/>
			<path fill-rule="evenodd" clip-rule="evenodd" fill="#A57536" d="M18.1,89.4c5.6,2.3,9.3,0.7,13.1-0.7c1-3.8,2.3-3.1,2.1-6.3
				C27.4,78.2,20.7,82.8,18.1,89.4z"/>
			<path fill-rule="evenodd" clip-rule="evenodd" fill="#A57536" d="M45.1,16.1c-2,7.5-2.3,14.1,5.4,16.6
				C56.5,26.1,51,19.2,45.1,16.1z"/>
			<path fill-rule="evenodd" clip-rule="evenodd" fill="#83A80D" d="M33,101.2c10.8,1.7,24.4-6.1,21-18.8
				C41.6,78,36.4,87.8,33,101.2z"/>
			<path fill-rule="evenodd" clip-rule="evenodd" fill="#83A80D" d="M64.8,43.4c12.8-2.9,9.4-22.1,1.1-27.4
				C58.6,22.8,54.1,39.3,64.8,43.4z"/>
			<path fill-rule="evenodd" clip-rule="evenodd" fill="#A57536" d="M80,30.6c7.4,1.2,7.8-9.9,6.8-14.6C80.8,14.5,74.6,26.8,80,30.6
				z"/>
			<path fill-rule="evenodd" clip-rule="evenodd" fill="#83A80D" d="M81.5,49.9c12.3,4.1,17.7-5.3,21-18.8
				C91.7,29.3,78.1,36.9,81.5,49.9z"/>
			<path fill-rule="evenodd" clip-rule="evenodd" fill="#A57536" d="M98.6,48.5c6.6,5.3,13-0.2,16-6.6
				C107,39.6,100.9,40.2,98.6,48.5z"/>
		</g>
		<g>
			<path fill="#5B7500" d="M68.5,144c-8.4,0-9.1,2.9-9.1-45.6c0-47.1,2.7-42.5,8.4-42.5h9.4c7.2,0,9.6,0.4,9.6,2.1
				c0,5.1-3.2,10.2-3.2,25.2c0,34.7,7.6,56,7.6,57.3c0,4.4-7.2,3.6-11.1,3.6H68.5z"/>
			<path fill="#5B7500" d="M182.1,79.6c7.6,0,9.1,0,9.1,5.7c0,42.3-41.4,61.4-48.6,61.4c-5,0-48.5-18.1-48.5-64
				c0-2.9,0.9-3.1,6.7-3.1h14.4c3,0,10.3-0.5,10.3,1.6c0,2.3-0.3,4.4-0.3,8.9c0,24.8,14.1,34.5,19.1,34.5c7.6,0,20-13.8,20-33.4
				c0-3.5-1-5.5-1-8.6c0-2.3,3.6-2.9,7.9-2.9H182.1z"/>
			<path fill="#5B7500" d="M202.8,132.9c0-1.2,0.3-4.1,4-4.1c16,0,20.2-3.7,20.2-5c0-4.2-24.3-11.4-24.3-39.4c0-4.5-0.1-4.7,5.3-4.7
				h11.4c1.8,0,4.9-0.3,4.9,1.8c0,1.4-1.2,4.5-1.2,7.6c0,11.8,13.7,22.8,16.4,22.8c5.6,0,9.3-12.1,9.3-19.8c0-5-1.5-9.3-1.5-10.9
				c0-1.8,3.5-1.5,5-1.5h12.4c2.7,0.3,2.2,3.5,2.2,7.9c1.2,29.5-30.3,58.1-60.9,58.1c-3.2,0-3.3-1.5-3.3-3.8V132.9z"/>
		</g>
		<g>
			<path fill="#5B7500" d="M50,239.5c-2.4,0-7.9,4-7.9-25.2c0-22.5,5.5-36.8,5.5-40.5c0-3-2.5-2.1-5.7-1.7
				c-8.8,1.2-21.5,8.4-23.6,8.4c-1.1,0-1.8,0.4-1.8-2.4c0-3.1,3.4-15.6,5.3-18.4c1.3-1.9,18.2-5.5,35.2-5.5
				c20.2,0,38.2,4.3,38.2,9.1c0,4.4-6.2,14-7.5,14c-2.1,0-7.3-5.9-16.3-5.9c-7.7,0-6.2,18.8-4.4,27.9c5.1,26.1,14.9,36.7,14.9,38.6
				c0,2.2-17,1.7-18.7,1.7H50z"/>
			<path fill="#5B7500" d="M102.7,239.5c-4.6,0-6.9,3.1-6.9-30.2c0-27.9-1-34.1,2.5-34.2h10.4c1.9,0,4.1-0.5,4.3,1.4
				c0.3,1.5,0.5,3.4,3,3.4c1.9,0,4-1.6,6.7-3.2c2.6-1.5,5.6-3.1,9-3.1c6.4,0,11.7,4.4,11.7,9.9c0,7-7.2,11.3-10.9,11.3
				c-1.5,0,0.3-6.7-8.4-6.7c-10.5,0-10.2,13.6-10.2,19.6c0,20,4.9,28.5,4.9,30.3c-0.1,1.6-4.6,1.6-6,1.6H102.7z"/>
			<path fill="#5B7500" d="M141,210c0-24.4,16.8-36.4,33.7-36.4c13.8,0,25.5,6.2,25.5,18.1c0,21.7-40.5,17.1-40.5,27.6
				c0,4.7,9.5,8.2,15.8,8.2c20.6,0,20.6-12.6,22.4-12.6c1.9,0,2.3,5.2,2.3,6c0,12.8-12.3,20.1-27.4,20.1
				C150.2,241,141,226.1,141,210 M157.9,200c0,1.1,0.6,2.2,2.3,2.2c1.5,0,24.4-4,24.4-9.2c0-4.9-5.8-7.6-10.5-7.6
				C163.8,185.4,157.9,194.2,157.9,200"/>
			<path fill="#5B7500" d="M206.9,210c0-24.4,16.8-36.4,33.7-36.4c13.8,0,25.5,6.2,25.5,18.1c0,21.7-40.5,17.1-40.5,27.6
				c0,4.7,9.6,8.2,15.8,8.2c20.6,0,20.6-12.6,22.4-12.6c1.9,0,2.3,5.2,2.3,6c0,12.8-12.3,20.1-27.4,20.1
				C216.2,241,206.9,226.1,206.9,210 M223.9,200c0,1.1,0.6,2.2,2.3,2.2c1.5,0,24.4-4,24.4-9.2c0-4.9-5.8-7.6-10.5-7.6
				C229.8,185.4,223.9,194.2,223.9,200"/>
		</g>
		<g>
			<g>
				<g>
					
						<image overflow="visible" opacity="0.75" width="359" height="404" xlink:href="B0C5CA55BA1E642D.png"  transform="matrix(0.24 0 0 0.24 99.6621 49.9322)">
					</image>
					<g>
						<path fill-rule="evenodd" clip-rule="evenodd" fill="#83A80D" d="M182.3,66c-6.4-7.4-15.9-15.5-15.9-15.5H119
							c0,0-9.5,8.1-15.9,15.5c10.7,9.7,5.5,29.3,4.7,45.3c5.6,10.8,31.4,25.7,34.9,29.3v0l0,0v0v0c3.5-3.6,29.3-18.5,34.9-29.3
							C176.8,95.3,171.6,75.8,182.3,66z"/>
					</g>
				</g>
				<g>
					<path fill-rule="evenodd" clip-rule="evenodd" fill="none" d="M173.8,66.2C167.4,60,162,55.9,162,55.9h-38.5
						c0,0-5.7,4.4-11.8,10.3c8.8,8,3.1,29.2,2.5,42.3c4.6,8.9,28.6,23.3,28.6,23.3l0,0c0,0,24-14.4,28.6-23.3
						C170.7,95.4,165,74.2,173.8,66.2z"/>
					<path fill="#FFFFFF" d="M142.9,134c0,0-25.1-15.9-29.8-25l-0.1-0.3l0-0.3c0.2-3.4,0.7-7.3,1.3-11.5c1.6-11.4,2.7-24.4-3.4-29.9
						l-0.9-0.8l0.9-0.8c6-5.8,11.8-10.2,11.8-10.2l0.3-0.4h39.5l0.3,0.4c0,0,5.5,4.2,11.8,10.2l0.9,0.8l-0.9,0.8
						c-6.1,5.5-5,18.5-3.4,29.9c0.6,4.1,1.1,8.1,1.3,11.5l0,0.3l-0.1,0.3C168.2,117,142.9,134,142.9,134z M142.9,129.1
						c6.7-4,23.3-14,27.2-20.9c-0.2-3.3-0.7-7-1.3-11c-1.6-11.5-2.7-24.4,3.3-31.1c-4.8-4.7-9.7-8.1-10.7-9.2h-37.5
						c-1.1,1.1-6,4.6-10.7,9.2c5.9,6.6,4.9,19.6,3.3,31.1c-0.6,4-1.1,7.7-1.3,11C119.5,115.8,142.9,129.1,142.9,129.1z"/>
				</g>
				<g>
					
						<image overflow="visible" opacity="0.75" width="238" height="313" xlink:href="B0C5CA55BA1E6433.png"  transform="matrix(0.24 0 0 0.24 115.7549 57.7368)">
					</image>
					<g>
						<path fill="#FFFCEE" d="M120.3,102.8c1.5-1.6,2.8-2.4,3.2-2.8c0.4-0.4,2.3-1.8,3.5-2c0,0-2.5-1.7-4.2-4.2
							c-1.7-2.4-2.8-3.8-3.2-4.9c-0.4-1.1-0.8-3.9-2.1-5.6c-1.3-1.6-2-2.2-2-2.2s1-0.9,2.9-1c1.9,0,3.1,1.7,3.1,1.7s0.9-1.6,3-1.7
							c2.1-0.1,4.7,0.4,4.7,0.4s-1.3-5.6,1.1-10.5c2.4-4.9,3.5-8.3,3.4-10.9c-0.1-2.6,0-1.5,0-1.5s1.5,1.4,3,2.4
							c1.5,1,1.3,2.1,3.7,2.8c2.4,0.7,5.6,3.6,7,5.9c1.4,2.3,2.9,5.3,3.2,5.5c0.2,0.2,0.6,2.1,0.1,3.2c0,0,0.9,0.4,2.8,0.1
							c1.9-0.4,3.5-1.3,5.3-1.5c1.8-0.1,2.1,0.1,3.6-0.6c1.6-0.7,3.2-1.7,3.2-1.7s1.3-0.1,1.2,0.1c-0.1,0.2-1.1,2.8-1.2,4.4
							c0,1.6-0.7,3.9-1.3,5.7c-0.6,1.8-5,4.7-5.8,7c0,0,4.6-2.2,6.2-2.5c1.6-0.3,3.7,0.7,5.1,0.5c0,0-1.9,1.9-2.7,3.8
							c-0.8,1.8-4.5,7.5-6.6,9.6c-2.1,2.1-7.2,4.2-8.1,5.1c-0.9,0.9-5.6,3.4-5.6,3.4s-1,3.1-1.2,5c-0.2,1.9-1.8,8.1-1.2,11.1
							c0.5,2.4-1.5,2.5-1.9,2.7c-1.1,0.4-1.4-0.3-1.4-0.3l0.9-3.2c0,0,1.8-8.6,2.3-11c0.6-3.2-3.2-4.4-3.2-4.4l-3.1-0.9
							c0,0-3.6-1.4-5.7-1.3c-2.1,0.1-3.8,0.3-3.8,0.3s-3.3-0.2-5.1-1.8c-1.8-1.6-4.9-3.2-4.9-3.2S118.8,104.3,120.3,102.8"/>
					</g>
				</g>
			</g>
			<g>
				<defs>
					<path id="SVGID_1_" d="M119.9,102.2c1.5-1.5,2.8-2.4,3.2-2.7c0.4-0.4,2.3-1.8,3.5-1.9c0,0-2.5-1.7-4.2-4.1
						c-1.7-2.4-2.7-3.8-3.1-4.8c-0.4-1-0.7-3.9-2-5.5c-1.2-1.6-2-2.2-2-2.2s1-0.9,2.9-0.9c1.9,0,3.1,1.7,3.1,1.7s0.9-1.6,3-1.6
						c2.1-0.1,4.7,0.4,4.7,0.4s-1.2-5.5,1.3-10.4c2.5-4.8,3.7-8.2,3.6-10.7c-0.1-2.5,0-1.5,0-1.5s1.5,1.4,2.9,2.4
						c1.4,1,1.2,2.1,3.7,2.8c2.4,0.7,5.5,3.6,6.9,5.9c1.4,2.2,2.8,5.2,3.1,5.5c0.2,0.2,0.6,2.1,0,3.2c0,0,0.9,0.4,2.8,0.1
						c1.9-0.3,3.5-1.3,5.3-1.4c1.8-0.1,2.1,0.1,3.6-0.5c1.6-0.7,3.3-1.7,3.3-1.7s1.3-0.1,1.2,0.1c-0.1,0.2-1.2,2.7-1.3,4.3
						c-0.1,1.6-0.7,3.8-1.4,5.6c-0.7,1.8-5.1,4.6-6,6.8c0,0,4.6-2.2,6.3-2.4c1.7-0.3,3.7,0.7,5.2,0.6c0,0-2,1.9-2.8,3.7
						c-0.8,1.8-4.7,7.4-6.8,9.4c-2.2,2.1-7.3,4.1-8.3,4.9c-0.9,0.8-4.7,3.5-4.7,3.5s-0.2,2.5-0.5,4.4c-0.2,1.9,1.3,5.9,1.9,8.8
						c-4.1,1.3-5.2,2.2-5.2,2.2l-5.6-2.6l3.6,0.2c0,0,1.5-6.5,2.1-8.9c0.7-3.2-3.1-4.3-3.1-4.3l-3.1-0.9c0,0-3.6-1.4-5.7-1.3
						c-2.1,0.1-3.9,0.3-3.9,0.3s-3.3-0.2-5.1-1.8c-1.8-1.6-4.8-3.1-4.8-3.1S118.4,103.7,119.9,102.2"/>
				</defs>
				<clipPath id="SVGID_2_">
					<use xlink:href="#SVGID_1_"  overflow="visible"/>
				</clipPath>
				<path clip-path="url(#SVGID_2_)" fill="#7A4300" d="M210.7-1.9c-0.5,0-1,0.1-1.5,0.1c-5.3,7.9-10.8,15.8-16.4,23.6
					c-5.5,7.7-11.1,15.5-17,22.7c-6,7.2-12.2,14.1-18.3,21.3c-6.2,7.2-9.1,16.7-16.1,23.6c-0.5,0.9,0.1,1.4,0.1,2.1
					c0.1,3-3.4,4.3-5.1,6.9c-1.5,2.2-3.3,6.2-3.3,6.2l1.4-0.3c0,0,2.8-1.9,5.4-3.1c1.8-1.5,2-4.2,3.6-5.7c1.1-1,2.6-1.2,4.2-1.4
					c3.2-6.4,8.1-11.3,12.5-16.4c2.7-3.2,5.1-7.2,7.3-11c4.3-7.5,8.3-15.3,13.4-23.2c8.1-12.6,17.7-25.3,26.6-37.5
					C209.7,3.1,213.4,0.4,210.7-1.9z M160.8,65.3c2.7-3.6,8-10.4,12-14.9C170,54,164.9,61,160.8,65.3z M173.3,49.5
					c-0.3,0.2,0.2-0.6,1.1-1.3C174.8,48,173.7,49.2,173.3,49.5z M175.9,46.4C176.5,45.9,173.8,48,175.9,46.4L175.9,46.4z
					 M177.6,44.1C175.5,45.8,178.2,43.7,177.6,44.1L177.6,44.1z"/>
			</g>
		</g>
	</g>
</g>
<g>
	<defs>
		<rect id="SVGID_3_" x="8.3" y="285.9" width="308.2" height="50"/>
	</defs>
	<clipPath id="SVGID_4_">
		<use xlink:href="#SVGID_3_"  overflow="visible"/>
	</clipPath>
	<g clip-path="url(#SVGID_4_)">
		<g>
			<g>
				<path fill="#5B7500" d="M29.2,297.4c0.1-0.7,0.2-1.4,0.3-2.2l2.2,0.1c-0.1,0.7-0.2,1.4-0.4,2.1h11.8v3H30.6
					c-0.1,0.5-0.3,0.9-0.4,1.3h12.3v2.7h-7.9c0.2,0.5,0.4,1,0.7,1.4H44v3h-6.1c0.1,0.1,0.2,0.2,0.3,0.2c2.1,1.7,4.6,2.7,7.5,3
					c-0.7,1.1-1.3,2.7-1.7,4.6c-1.1-0.5-2.1-0.9-3.1-1.5v7.6c0,0.8-0.6,1.3-1.6,1.4H21.9c-0.8-0.1-1.3-0.6-1.3-1.4V315
					c-0.9,0.6-1.8,1-2.7,1.5c-0.5-1.6-1.1-2.9-2-4.1c2-0.4,3.8-1.1,5.4-1.9c0.8-0.5,1.5-1,2.1-1.7h-6.2v-3H26
					c0.3-0.4,0.6-0.9,0.8-1.4h-8v-2.7H28c0.1-0.1,0.1-0.3,0.2-0.5c0.1-0.3,0.2-0.6,0.3-0.8H17.8v-3H29.2z M38.7,314.6
					c0-0.2-0.3-0.4-0.7-0.5H23.3c-0.4,0.1-0.6,0.2-0.6,0.5v1.6h16V314.6z M22.6,320.4c0.1,0.3,0.4,0.4,0.7,0.4h14.5
					c0.5,0,0.7-0.2,0.8-0.6v-1.4h-16V320.4z M35.9,311.2c-0.7-0.8-1.3-1.5-1.8-2.4h-7c-0.6,0.9-1.1,1.7-1.8,2.4H35.9z M32.2,304.4
					h-2.8c-0.2,0.5-0.4,0.9-0.6,1.4h3.9C32.4,305.4,32.3,304.9,32.2,304.4z"/>
				<path fill="#5B7500" d="M57.8,302.1c0.8,0.1,1.3,0.6,1.3,1.3v10.9c1-0.3,2-0.8,2.8-1.3c0,0,0,0,0.1-0.1h-2.2v-2.8h4.7
					c0.3-0.4,0.6-0.9,0.8-1.5h-4.8V306h3.7c-0.8-0.3-1.6-0.7-2.2-1.2c-0.4-0.3-0.7-0.8-0.9-1.5c-0.2-0.7-0.3-1.3-0.3-1.7h1.6
					c0,0.6,0.3,0.9,0.9,1.2c0.8,0.3,1.7,0.5,2.6,0.5c-0.2,0.9-0.3,1.9-0.4,2.7h0.8c0.4-1.2,0.6-2.6,0.7-4.2l2.3,0.1
					c-0.2,1.4-0.4,2.7-0.7,4.1h2c-0.1-0.9-0.2-1.8-0.4-2.7c0.3,0,0.7-0.1,1.2-0.2c0.7-0.1,1.1-0.3,1.2-0.4c0.6-0.3,0.8-0.7,0.8-1.3
					h1.9c0,1.5-0.4,2.6-1.2,3.4c-0.6,0.5-1.3,0.9-2,1.1h4.3v2.6h-5.2c0.1,0.6,0.3,1,0.5,1.5c0,0,0,0,0,0h5.7v2.8h-3.6
					c0.6,0.4,1.2,0.7,1.9,1c0.9,0.4,1.9,0.6,3,0.6c-0.4,0.4-0.8,1-1.2,1.8c-0.3,0.7-0.6,1.3-0.8,2c-1-0.4-1.9-0.8-2.6-1.3
					c-0.4,0.4-0.8,0.8-1.2,1.2c1.4,0.8,3.1,1.4,5.1,1.9c-0.8,0.9-1.4,2.1-1.9,3.5c-2.8-0.7-5-2.6-6.9-5.7v4.7c0,1.1-0.5,1.8-1.3,2.1
					c-0.4,0.2-0.8,0.3-1.4,0.4c-0.5,0.1-1,0.2-1.6,0.2c0-1.3-0.3-2.6-0.7-3.7c0.5,0.1,1,0.1,1.6,0.1c0.9,0,1.4-0.4,1.4-1.2v-2.1
					c-1.8,2-4,3.5-6.6,4.5c-0.4-1.1-0.9-2.2-1.5-3v3.2c0,1.2-1.7,1.9-5.1,1.9c0-2-0.1-3.3-0.3-4c0.9,0.1,1.9,0.1,2.8,0.1
					c0.3,0,0.4-0.1,0.5-0.3v-4.1h-3.9v0.2c0,1.6-0.5,3.3-1.3,5.1c-0.5,1.2-1.3,2.1-2.2,2.8c-0.4-1.7-0.8-3.3-1.1-4.8
					c1.4-1.1,2.3-2.7,2.6-4.7c0-2.4,0.1-6.3,0.1-11.7c0-0.8,0.6-1.3,1.7-1.3h1.4H57.8z M57.6,297.1v-1.9h2.3v1.9h7v-1.9h2.3v1.9h7.8
					v3h-7.8v1.3h-2.3v-1.3h-7v1.5h-2.3v-1.5H50v-3H57.6z M57,305.5c0-0.4-0.3-0.6-0.7-0.6h-2.2c-0.6,0.1-0.9,0.3-0.9,0.6
					c-0.1,0.7-0.1,1.4-0.1,2.2H57V305.5z M53.1,313.6H57v-2.9h-3.9V313.6z M63.1,318.3c-0.3-0.7-0.5-1.2-0.8-1.7
					c-0.6,0.5-1.3,0.9-2,1.3c-0.3-1-0.7-2-1.2-2.8v4.1C60.6,319,62,318.7,63.1,318.3z M71.6,314.6c-0.4-0.5-0.7-1-1-1.6h-4.8
					c-0.7,1-1.4,1.9-2.1,2.5c0.7,0.5,1.3,1.1,1.7,1.7c0.7-0.4,1.3-0.9,1.8-1.5v-2.4h2v1.3c0.4,0.8,0.9,1.4,1.5,2
					c0.7-0.3,1.3-0.6,1.8-0.9C72.1,315.4,71.8,315,71.6,314.6z M69.1,308.6h-1.3c-0.2,0.5-0.4,1-0.6,1.5h2.2
					C69.3,309.6,69.2,309.2,69.1,308.6z"/>
				<path fill="#5B7500" d="M94,301.3v2.9H81.4v-2.9H94z M84.1,323.7c-0.8-0.1-1.2-0.5-1.3-1.2v-6.9c0.1-0.7,0.7-1.1,1.7-1.1h6.6
					c1,0.1,1.5,0.6,1.6,1.3v6.7c0,0.8-0.5,1.2-1.4,1.2H84.1z M92.4,305.7v2.6h-9.6v-2.6H92.4z M92.4,310v2.6h-9.6V310H92.4z
					 M92.4,296.9v2.7h-9.2v-2.7H92.4z M84.8,318v2.4c0.2,0.3,0.4,0.4,0.7,0.4h4.6c0.4,0,0.6-0.2,0.7-0.5V318c0-0.3-0.2-0.4-0.7-0.5
					h-4.7C85.1,317.6,84.9,317.7,84.8,318z M93.8,299.7v-3.2h15.2v3.2h-8.2l-0.3,2.6h5.4c0.8,0,1.2,0.6,1.2,1.8l-0.3,4.5h3.4v3.2
					H93.2v-3.2h4.8l0.3-3.1h-3.4v-3.2h3.7l0.2-2.6H93.8z M96.4,324.1c-0.8-0.1-1.3-0.5-1.3-1.3v-7.7c0.2-0.8,0.8-1.2,1.8-1.2h9.9
					c1.1,0.1,1.6,0.6,1.7,1.4v7.6c0,0.8-0.5,1.3-1.5,1.3H96.4z M97.2,317.6v3.1c0.1,0.3,0.4,0.4,0.7,0.4h7.6c0.4,0,0.7-0.2,0.8-0.5
					v-2.9c0-0.3-0.3-0.5-0.7-0.6h-7.8C97.5,317.1,97.3,317.3,97.2,317.6z M104.9,305.9c-0.1-0.3-0.3-0.5-0.6-0.5h-4l-0.3,3.1h4.6
					L104.9,305.9z"/>
				<path fill="#5B7500" d="M129.6,295.2v3.7h12.7v3.6h-5.1c-0.7,5.3-2.5,9.7-5.4,13c3,1.5,6.8,2.8,11.5,3.9c-1.1,1.3-2,2.8-2.6,4.6
					c-4.6-1.8-8.4-3.7-11.5-6c-3.3,2.7-7.5,4.5-12.7,5.4c-0.2-1.6-0.6-3-1.3-4.2c4.4-0.8,8.1-2.1,11-3.7c-3.5-3.4-5.5-7.7-5.8-13
					h-5.1v-3.6h11.9v-3.7H129.6z M128.8,313.7c3.5-2.9,5.5-6.6,5.9-11.2h-12.2C123.1,307.3,125.2,311.1,128.8,313.7z"/>
				<path fill="#5B7500" d="M152.1,295.2c-0.1,1.5-0.3,2.8-0.5,3.9h6.1v3.2h-3.5v4.9h3.6v3.4h-3.5c0.1,1.6,0.5,3,0.9,4.1
					c0.9,1.8,2,3.1,3.1,3.8c-0.4,1.2-0.9,3-1.4,5.1c-2-1.9-3.3-4.6-4-8.2c-0.6,3.5-2.3,6.5-5.3,9c-0.2-1.6-0.6-3.2-1.2-4.8
					c2.1-1.4,3.6-3.1,4.3-5.1c0.7-1.3,1.1-2.6,1.3-3.9h-4.7v-3.4h4.9v-4.9h-1.4c-0.1,0.3-0.2,0.6-0.3,0.8c-0.8,1.9-1.9,3-3.2,3.4
					c0-2.3-0.2-3.8-0.6-4.6c1.9-0.6,3-2.9,3.5-6.8L152.1,295.2z M175.5,320.8v3.4H158v-3.4H175.5z M174.9,296.8v3h-16.8v-3H174.9z
					 M161,312.1c-0.8-0.1-1.3-0.5-1.4-1.3v-7.6c0.2-0.8,0.8-1.2,1.9-1.2h10.4c1.2,0.1,1.9,0.6,1.9,1.4v7.4c0,0.8-0.6,1.3-1.7,1.4
					H161z M166.1,316.2c-0.1,1.4-0.1,2.7-0.1,4.1c-3.7,0-5.7-2.4-5.9-7.1c0.6,0,1.1,0,1.7-0.1C162.2,314.9,163.6,316,166.1,316.2z
					 M161.8,305.7v2.8c0.2,0.3,0.4,0.4,0.8,0.4h7.9c0.5,0,0.7-0.2,0.8-0.6v-2.6c0-0.3-0.3-0.5-0.8-0.6h-8.1
					C162.1,305.3,161.9,305.4,161.8,305.7z M173.6,313c0,1.6-0.2,2.9-0.4,3.8c-0.6,2.1-2.3,3.4-5.3,3.7c0-1.6-0.1-3.1-0.3-4.3
					c2.7-0.1,4-1.1,4-3.2H173.6z"/>
				<path fill="#5B7500" d="M185.3,317.6c-0.4,3.7-2.1,5.9-5.1,6.6c-0.3-1.6-0.8-2.9-1.6-3.8c2.7-0.4,4.3-1.4,5-3.1L185.3,317.6z
					 M182,298.2v-3.1h2.1v3.1h6v-3.1h2.2v3.1h2.1v3.1h-2.1v12.1h2.2v3.3h-15.1v-3.3h2.5v-12.1h-2.1v-3.1H182z M190.1,303.5v-2.2h-6
					v2.2H190.1z M190.1,308.5v-2.1h-6v2.1H190.1z M190.1,311.3h-6v2.1h6V311.3z M193.8,320.4c-0.1-0.2-0.1-0.5-0.2-0.7
					c1.3-1.4,2.2-3.5,2.4-6.2c0-3.3,0.1-8.5,0.1-15.6c0-1,0.6-1.5,1.9-1.5h7.2c0.9,0.1,1.4,0.6,1.4,1.5v24.4c0,1.4-1.8,2.2-5.3,2.2
					c0-2.2-0.1-3.7-0.3-4.6c0.9,0.1,1.9,0.2,2.8,0.2c0.3,0,0.5-0.1,0.5-0.4v-5.3h-6v0.3c0,2-0.4,4.2-1.3,6.5
					c-0.5,1.5-1.3,2.7-2.2,3.5c-0.3-1.4-0.7-2.7-0.9-4c-0.6,1.3-0.8,2.5-0.8,3.7c-3-0.9-4.8-3.2-5.4-6.8c0.6-0.1,1.2-0.3,1.8-0.5
					C189.8,318.6,191.2,319.7,193.8,320.4z M204.3,300.4c0-0.4-0.3-0.7-0.8-0.7h-4.1c-0.7,0.1-1,0.4-1,0.8c-0.1,1-0.1,2.2-0.1,3.6h6
					V300.4z M204.3,307.3h-6v4.1h6V307.3z"/>
				<path fill="#5B7500" d="M218.3,295.1v4.4h1.4c0.7,0.1,1,0.5,1,0.9c-0.1,3.5-0.9,6.4-2.6,8.8c-0.3,0.6-0.7,1.1-1,1.6v0.1
					c2.1-0.6,3.4-2.1,3.9-4.5l1.4,0.4c0,2.4-0.7,4.3-2.1,5.7c0.4,1.6,1.1,2.3,2,2.3v4.3c-1.4,0-2.3-0.7-2.8-2
					c-0.3-0.4-0.6-1.5-0.8-3.4c-0.5,0.3-1.1,0.6-1.7,0.8V325h-2.2v-11.8c-0.9,0.8-1.9,1.5-3,2.2c0-1.5-0.3-3-0.8-4.6
					c2-0.8,3.6-1.8,4.8-3.1c1.2-1.2,2-2.7,2.4-4.4c0-0.3-0.1-0.4-0.2-0.5h-6.2v-3.3h4v-4.4H218.3z M224.9,324.9h-2v-18.4
					c0.1-1.3,0.6-2,1.7-2h5v-2.1h-7.8v-3.2h7.8v-4.1h2.2v4.1h3.4c-0.3-1.3-1-2.3-2.1-3.2l1.2-0.8c2.1,0.1,3.6,1,4.4,2.9
					c-1,0.3-1.9,0.6-2.7,1h4.1v3.2h-8.3v2.1h5.5c1.2,0,1.8,0.6,1.8,1.8v15.7c0,1.4-0.5,2.2-1.3,2.6c-0.7,0.3-2,0.4-3.9,0.4
					c0-1.7-0.2-3-0.6-3.9c0.7,0.1,1.7,0.1,2.8,0.1c0.6-0.1,0.8-0.5,0.9-1.3v-2.3h-5.1v6.2h-2.2v-6.2h-4.7V324.9z M229.5,307.8h-4.2
					c-0.3,0-0.5,0.2-0.5,0.7v1.6h4.7V307.8z M224.9,314.9h4.7v-2.2h-4.7V314.9z M236.8,308.4c0-0.4-0.2-0.6-0.4-0.6h-4.7v2.2h5.1
					V308.4z M231.7,314.9h5.1v-2.2h-5.1V314.9z"/>
				<path fill="#5B7500" d="M249.1,324.1c-0.8-0.1-1.3-0.5-1.4-1.3v-10.5c0.2-0.7,0.8-1.1,1.9-1.2h6.9l0.6-1.5h-1.9v-3.9
					c-1,1-2.2,2-3.6,2.9c-1.8,1.2-3.8,2.1-6.1,2.9c-0.1-0.5-0.3-1.2-0.5-2c-0.2-0.6-0.4-1.2-0.5-1.8c2.8-0.5,5-1.2,6.6-2.2
					c1.5-0.8,2.9-2,4.1-3.3v-2.4c0-0.3-0.2-0.5-0.4-0.5c-1.7,3-4.6,5.1-8.9,6.2c-0.5-1.4-1.1-2.5-1.7-3.4c3.8-0.6,6.4-1.5,8-2.8
					h-6.4v-3h10.6c0.7,0.2,1,0.5,1.1,1v11.6l0.2-0.4l1.9,0.2c-0.1-0.1-0.1-0.3-0.1-0.4c-0.2-0.6-0.4-1.2-0.5-1.9
					c2.6-0.4,4.6-1.1,6.1-2c1.4-0.8,2.7-1.8,3.8-3v-1.6c0-0.3-0.2-0.5-0.5-0.5h-0.6c-1.6,2.7-4.3,4.6-8.2,5.6
					c-0.5-1.3-1-2.4-1.6-3.3c3.3-0.5,5.6-1.3,7-2.3h-5.8v-3.1h10.9c0.7,0.2,1,0.5,1.1,1v12.9h-2.2v-5.3c-0.9,1-2.1,1.9-3.3,2.7
					c-1.6,1.1-3.5,2-5.5,2.7c-0.1-0.2-0.1-0.4-0.1-0.7l-0.6,1.4h9.5c1.1,0.1,1.7,0.6,1.8,1.3v10.3c0,0.8-0.6,1.2-1.6,1.3H249.1z
					 M249.9,314.7v1.6h18.4v-1.6c0-0.3-0.3-0.4-0.8-0.6h-17C250.2,314.2,250,314.4,249.9,314.7z M249.9,319.1v1.5
					c0.2,0.3,0.4,0.4,0.8,0.4h16.8c0.5,0,0.7-0.2,0.8-0.5v-1.4H249.9z"/>
				<path fill="#5B7500" d="M287.5,318.1c-1.7,0.7-3.4,1.3-5,2.1c-1.7,0.6-3.3,1.2-5,1.9c-0.1-0.4-0.2-1.1-0.4-2.2
					c-0.3-1-0.4-1.7-0.5-2.1c1.1-0.2,2.6-0.5,4.4-0.9v-6.8h-3.4v-3.3h3.4v-6h-3.8V297h9.7v3.6h-3.8v6h3.4v3.3h-3.4v6.3
					c1.4-0.4,2.8-0.7,4.2-1.1C287.5,316.1,287.5,317.1,287.5,318.1z M293.6,295.1l-0.1,15.8c0,5-0.6,8.1-1.6,9.4
					c-0.8,1.5-2.3,3-4.5,4.4c-0.3-1.7-0.8-3.1-1.4-4.5c1.6-0.6,2.9-1.8,3.7-3.5c1.2-2.1,1.9-5,2-9l-0.1-12.6H293.6z M290.3,301.8
					c0,2.5,0,4.4,0,5.5c-0.2,4-1.3,6.5-3.2,7.7c-0.3-1.6-0.6-3.1-0.9-4.6c1.6-0.5,2.4-3.4,2.4-8.6H290.3z M304.7,296.9v3.6h-4.2v6.9
					h3.9v3.7h-3.9v7.8h4.9v3.9h-11.9v-3.9h4.9V311h-3.7v-3.7h3.7v-6.9h-3.9v-3.6H304.7z"/>
			</g>
		</g>
		<g>
			<g>
				<path fill-rule="evenodd" clip-rule="evenodd" fill="#A57536" d="M313,222c-1.9,5.9-14.6,10-16.8,1.7
					C299.3,217.6,308,219.3,313,222z"/>
				<path fill-rule="evenodd" clip-rule="evenodd" fill="#83A80D" d="M307.4,241.5c-8.6,6.7-26.1,7-28-5.7
					C288.3,225.5,302.3,234.4,307.4,241.5z"/>
				<path fill-rule="evenodd" clip-rule="evenodd" fill="#83A80D" d="M300.8,203.4c-0.5,10.9-11.2,22.8-23,16.4
					C277.1,207.5,286.6,203.5,300.8,203.4z"/>
				<path fill-rule="evenodd" clip-rule="evenodd" fill="#A57536" d="M301,262.9c-6,1-9.3-1.3-12.6-3.5c-0.1-3.9-1.6-3.5-0.6-6.6
					C294.3,249.9,299.8,255.9,301,262.9z"/>
				<path fill-rule="evenodd" clip-rule="evenodd" fill="#A57536" d="M290.5,185.5c0.4,7.7-0.8,14.3-8.9,15
					C277.2,192.8,284.1,187.2,290.5,185.5z"/>
				<path fill-rule="evenodd" clip-rule="evenodd" fill="#83A80D" d="M283.8,271.2c-10.9-0.7-22.5-11.2-16.4-22.9
					C280.5,246.7,283.4,257.4,283.8,271.2z"/>
				<path fill-rule="evenodd" clip-rule="evenodd" fill="#83A80D" d="M265.3,207.8c-11.9-5.6-4.4-23.6,4.9-26.9
					C275.9,189.1,276.7,206.2,265.3,207.8z"/>
				<path fill-rule="evenodd" clip-rule="evenodd" fill="#A57536" d="M253.4,192c-7.5-0.4-5.4-11.3-3.4-15.7
					C256.1,176.2,259.5,189.5,253.4,192z"/>
				<path fill-rule="evenodd" clip-rule="evenodd" fill="#83A80D" d="M247.6,210.5c-12.9,1.4-16.1-9-16.4-22.9
					C242.2,188.2,253.8,198.6,247.6,210.5z"/>
				<path fill-rule="evenodd" clip-rule="evenodd" fill="#A57536" d="M228.4,206.7c-7.6,3.8-12.7-3-14.2-9.9
					C222,196.3,227.9,198.2,228.4,206.7z"/>
			</g>
			<g>
				<path fill-rule="evenodd" clip-rule="evenodd" fill="#A57536" d="M11.7,88.3c0.6,6.2,12,12.9,16.1,5.3
					C26,86.9,17.2,86.7,11.7,88.3z"/>
				<path fill-rule="evenodd" clip-rule="evenodd" fill="#83A80D" d="M13,108.5c6.9,8.4,23.9,12.5,28.5,0.5
					C35.1,97,19.5,102.7,13,108.5z"/>
				<path fill-rule="evenodd" clip-rule="evenodd" fill="#83A80D" d="M27.7,72.8c-1.9,10.8,6,24.7,18.8,21
					C49.9,81.9,41.5,76,27.7,72.8z"/>
				<path fill-rule="evenodd" clip-rule="evenodd" fill="#A57536" d="M14.6,130.8c5.6,2.3,9.3,0.7,13.1-0.7c1-3.8,2.3-3.1,2.1-6.3
					C23.9,119.6,17.3,124.2,14.6,130.8z"/>
				<path fill-rule="evenodd" clip-rule="evenodd" fill="#A57536" d="M41.7,57.5c-2,7.5-2.3,14.1,5.4,16.6
					C53,67.5,47.6,60.6,41.7,57.5z"/>
				<path fill-rule="evenodd" clip-rule="evenodd" fill="#83A80D" d="M29.5,142.6c10.8,1.7,24.4-6.1,21-18.8
					C38.1,119.4,32.9,129.2,29.5,142.6z"/>
				<path fill-rule="evenodd" clip-rule="evenodd" fill="#83A80D" d="M61.4,84.8c12.8-2.9,9.4-22.1,1.1-27.4
					C55.1,64.2,50.7,80.7,61.4,84.8z"/>
				<path fill-rule="evenodd" clip-rule="evenodd" fill="#A57536" d="M76.5,72c7.4,1.2,7.8-9.9,6.8-14.6
					C77.3,55.9,71.1,68.2,76.5,72z"/>
				<path fill-rule="evenodd" clip-rule="evenodd" fill="#83A80D" d="M78.1,91.3c12.3,4.1,17.7-5.3,21-18.8
					C88.2,70.7,74.6,78.3,78.1,91.3z"/>
				<path fill-rule="evenodd" clip-rule="evenodd" fill="#A57536" d="M95.1,89.9c6.6,5.3,13-0.2,16-6.6
					C103.6,81,97.4,81.6,95.1,89.9z"/>
			</g>
			<g>
				<path fill="#5B7500" d="M65,185.4c-8.4,0-9.1,2.9-9.1-45.6c0-47.1,2.7-42.5,8.4-42.5h9.4c7.2,0,9.6,0.4,9.6,2.1
					c0,5.1-3.2,10.2-3.2,25.2c0,34.7,7.6,56,7.6,57.3c0,4.4-7.2,3.6-11.1,3.6H65z"/>
				<path fill="#5B7500" d="M178.6,121c7.6,0,9.1,0,9.1,5.7c0,42.3-41.4,61.4-48.6,61.4c-5,0-48.5-18.1-48.5-64
					c0-2.9,0.9-3.1,6.7-3.1h14.4c3,0,10.3-0.5,10.3,1.6c0,2.3-0.3,4.4-0.3,8.9c0,24.8,14.1,34.5,19.1,34.5c7.6,0,20-13.8,20-33.4
					c0-3.5-1-5.5-1-8.6c0-2.3,3.6-2.9,7.9-2.9H178.6z"/>
				<path fill="#5B7500" d="M199.3,174.3c0-1.2,0.3-4.1,4-4.1c16,0,20.2-3.7,20.2-5c0-4.2-24.3-11.4-24.3-39.4
					c0-4.5-0.1-4.7,5.3-4.7h11.4c1.8,0,4.9-0.3,4.9,1.8c0,1.4-1.3,4.5-1.3,7.6c0,11.8,13.7,22.8,16.4,22.8c5.6,0,9.3-12.1,9.3-19.8
					c0-5-1.5-9.3-1.5-10.9c0-1.8,3.5-1.5,5-1.5h12.4c2.7,0.3,2.2,3.5,2.2,7.9c1.3,29.5-30.3,58.1-60.9,58.1c-3.2,0-3.3-1.5-3.3-3.8
					V174.3z"/>
			</g>
			<g>
				<path fill="#5B7500" d="M46.6,280.9c-2.4,0-7.9,4-7.9-25.2c0-22.5,5.5-36.8,5.5-40.5c0-3-2.5-2.1-5.7-1.7
					c-8.8,1.2-21.5,8.4-23.6,8.4c-1.1,0-1.8,0.4-1.8-2.4c0-3.1,3.4-15.6,5.3-18.4c1.3-1.9,18.2-5.5,35.2-5.5
					c20.2,0,38.2,4.3,38.2,9.1c0,4.4-6.2,14-7.5,14c-2.1,0-7.3-5.9-16.3-5.9c-7.7,0-6.2,18.8-4.4,27.9c5.1,26.1,14.9,36.7,14.9,38.6
					c0,2.2-17,1.7-18.7,1.7H46.6z"/>
				<path fill="#5B7500" d="M99.3,280.9c-4.6,0-6.9,3.1-6.9-30.2c0-27.9-1-34.1,2.5-34.2h10.4c1.9,0,4.1-0.5,4.3,1.4
					c0.3,1.5,0.5,3.4,3,3.4c1.9,0,4-1.6,6.7-3.2c2.6-1.5,5.6-3.1,9-3.1c6.4,0,11.7,4.4,11.7,9.9c0,7-7.2,11.3-10.9,11.3
					c-1.5,0,0.2-6.7-8.4-6.7c-10.5,0-10.2,13.6-10.2,19.6c0,20,4.9,28.5,4.9,30.3c-0.1,1.6-4.7,1.6-6,1.6H99.3z"/>
				<path fill="#5B7500" d="M137.5,251.4c0-24.4,16.8-36.4,33.7-36.4c13.8,0,25.5,6.2,25.5,18.1c0,21.7-40.5,17.1-40.5,27.6
					c0,4.7,9.5,8.2,15.8,8.2c20.6,0,20.6-12.6,22.4-12.6c1.9,0,2.3,5.2,2.3,6c0,12.8-12.3,20.1-27.4,20.1
					C146.8,282.4,137.5,267.5,137.5,251.4 M154.5,241.4c0,1.1,0.6,2.2,2.3,2.2c1.5,0,24.4-4,24.4-9.2c0-4.9-5.8-7.7-10.6-7.7
					C160.4,226.8,154.5,235.6,154.5,241.4"/>
				<path fill="#5B7500" d="M203.4,251.4c0-24.4,16.8-36.4,33.7-36.4c13.8,0,25.5,6.2,25.5,18.1c0,21.7-40.5,17.1-40.5,27.6
					c0,4.7,9.6,8.2,15.8,8.2c20.6,0,20.6-12.6,22.4-12.6c1.9,0,2.3,5.2,2.3,6c0,12.8-12.3,20.1-27.4,20.1
					C212.7,282.4,203.4,267.5,203.4,251.4 M220.4,241.4c0,1.1,0.6,2.2,2.3,2.2c1.5,0,24.4-4,24.4-9.2c0-4.9-5.8-7.7-10.5-7.7
					C226.3,226.8,220.4,235.6,220.4,241.4"/>
			</g>
			<g>
				<g>
					<g>
						
							<image overflow="visible" opacity="0.75" width="359" height="404" xlink:href="B0C5CA55BA1E6434.png"  transform="matrix(0.24 0 0 0.24 96.2031 91.3281)">
						</image>
						<g>
							<path fill-rule="evenodd" clip-rule="evenodd" fill="#83A80D" d="M178.8,107.4c-6.4-7.4-15.9-15.5-15.9-15.5h-47.3
								c0,0-9.5,8.1-15.9,15.5c10.7,9.7,5.5,29.3,4.7,45.3c5.6,10.8,31.4,25.7,34.9,29.3v0l0,0v0v0c3.5-3.6,29.3-18.5,34.9-29.3
								C173.3,136.7,168.1,117.2,178.8,107.4z"/>
						</g>
					</g>
					<g>
						<path fill-rule="evenodd" clip-rule="evenodd" fill="none" d="M170.3,107.6c-6.4-6.1-11.8-10.3-11.8-10.3H120
							c0,0-5.7,4.4-11.8,10.3c8.8,8,3.1,29.2,2.5,42.3c4.6,8.9,28.6,23.3,28.6,23.3l0,0c0,0,24-14.4,28.6-23.3
							C167.2,136.8,161.5,115.6,170.3,107.6z"/>
						<path fill="#FFFFFF" d="M139.4,175.4c0,0-25.1-15.9-29.8-25l-0.1-0.3l0-0.3c0.2-3.4,0.7-7.3,1.3-11.5
							c1.6-11.4,2.7-24.4-3.4-29.9l-0.9-0.8l0.9-0.8c6-5.8,11.8-10.2,11.8-10.2l0.3-0.4H159l0.3,0.4c0,0,5.5,4.2,11.8,10.2l0.9,0.8
							l-0.9,0.8c-6.1,5.5-5,18.5-3.4,29.9c0.6,4.1,1.1,8.1,1.3,11.5l0,0.3l-0.1,0.3C164.7,158.4,139.4,175.4,139.4,175.4z
							 M139.5,170.5c6.7-4.1,23.3-14,27.2-20.9c-0.2-3.3-0.7-7-1.3-11c-1.6-11.5-2.7-24.4,3.3-31.1c-4.8-4.7-9.7-8.1-10.7-9.2h-37.5
							c-1.1,1.1-6,4.6-10.7,9.2c5.9,6.6,4.9,19.6,3.3,31.1c-0.6,4-1.1,7.7-1.3,11C116,157.2,139.5,170.5,139.5,170.5z"/>
					</g>
					<g>
						
							<image overflow="visible" opacity="0.75" width="238" height="313" xlink:href="B0C5CA55BA1E6437.png"  transform="matrix(0.24 0 0 0.24 112.2969 99.1356)">
						</image>
						<g>
							<path fill="#FFFCEE" d="M116.8,144.2c1.5-1.6,2.8-2.4,3.2-2.8c0.4-0.4,2.3-1.8,3.5-2c0,0-2.5-1.7-4.2-4.2
								c-1.7-2.4-2.8-3.8-3.2-4.9c-0.4-1.1-0.8-3.9-2.1-5.6c-1.3-1.6-2-2.2-2-2.2s1-0.9,2.9-1c1.9,0,3.1,1.7,3.1,1.7s0.9-1.6,3-1.7
								c2.1-0.1,4.7,0.4,4.7,0.4s-1.3-5.6,1.1-10.5c2.4-4.9,3.5-8.3,3.4-10.9c-0.1-2.6,0-1.5,0-1.5s1.5,1.4,3,2.4
								c1.5,1,1.3,2.1,3.7,2.8c2.4,0.7,5.6,3.6,7,5.9c1.4,2.3,2.9,5.3,3.2,5.5c0.2,0.2,0.6,2.1,0.1,3.2c0,0,0.9,0.4,2.8,0.1
								c1.9-0.4,3.5-1.3,5.3-1.5s2,0.1,3.6-0.6c1.6-0.7,3.2-1.7,3.2-1.7s1.3-0.1,1.2,0.1c-0.1,0.2-1.1,2.8-1.2,4.4
								c0,1.6-0.7,3.9-1.3,5.7c-0.6,1.8-5,4.7-5.8,7c0,0,4.6-2.2,6.2-2.5c1.6-0.3,3.7,0.7,5.1,0.5c0,0-1.9,1.9-2.7,3.8
								c-0.8,1.8-4.5,7.5-6.6,9.6c-2.1,2.1-7.2,4.2-8.1,5.1c-0.9,0.9-5.6,3.4-5.6,3.4s-1,3.1-1.2,5c-0.2,1.9-1.8,8.1-1.2,11.1
								c0.5,2.4-1.5,2.5-1.9,2.7c-1,0.4-1.4-0.3-1.4-0.3l0.9-3.2c0,0,1.8-8.6,2.3-11c0.6-3.2-3.2-4.4-3.2-4.4l-3.1-0.9
								c0,0-3.6-1.4-5.7-1.3c-2.1,0.1-3.8,0.3-3.8,0.3s-3.3-0.2-5.1-1.8c-1.9-1.6-4.9-3.2-4.9-3.2S115.3,145.7,116.8,144.2"/>
						</g>
					</g>
				</g>
				<g>
					<defs>
						<path id="SVGID_5_" d="M116.5,143.6c1.5-1.5,2.8-2.4,3.2-2.7c0.4-0.4,2.3-1.8,3.5-2c0,0-2.5-1.7-4.2-4.1
							c-1.7-2.4-2.7-3.8-3.1-4.8c-0.4-1-0.7-3.9-2-5.5c-1.2-1.6-2-2.2-2-2.2s1-0.9,2.9-0.9c1.9,0,3,1.7,3,1.7s0.9-1.6,3-1.7
							c2.1-0.1,4.7,0.4,4.7,0.4s-1.2-5.5,1.3-10.4c2.5-4.8,3.7-8.2,3.6-10.7c0-2.5,0-1.5,0-1.5s1.5,1.4,2.9,2.4
							c1.4,1,1.2,2.1,3.7,2.8c2.4,0.7,5.5,3.6,6.9,5.9c1.4,2.2,2.8,5.2,3.1,5.5c0.2,0.2,0.6,2.1,0,3.2c0,0,0.9,0.4,2.8,0.1
							c1.9-0.3,3.5-1.3,5.3-1.4c1.8-0.1,2.1,0.1,3.6-0.5c1.6-0.7,3.3-1.7,3.3-1.7s1.3-0.1,1.2,0.1c-0.1,0.2-1.2,2.7-1.3,4.3
							c-0.1,1.6-0.7,3.8-1.4,5.6c-0.7,1.8-5.1,4.6-6,6.8c0,0,4.6-2.2,6.3-2.4c1.7-0.3,3.7,0.7,5.2,0.6c0,0-2,1.9-2.8,3.7
							c-0.8,1.8-4.7,7.4-6.8,9.4c-2.2,2.1-7.3,4.1-8.3,5c-0.9,0.8-4.7,3.5-4.7,3.5s-0.2,2.5-0.5,4.4c-0.2,1.9,1.3,5.9,1.9,8.8
							c-4.1,1.3-5.2,2.2-5.2,2.2l-5.6-2.6l3.6,0.2c0,0,1.5-6.5,2.1-8.9c0.7-3.2-3.1-4.3-3.1-4.3l-3.1-0.9c0,0-3.6-1.4-5.7-1.3
							c-2.1,0.1-3.9,0.3-3.9,0.3s-3.3-0.2-5.1-1.8c-1.8-1.6-4.8-3.1-4.8-3.1S114.9,145.1,116.5,143.6"/>
					</defs>
					<clipPath id="SVGID_6_">
						<use xlink:href="#SVGID_5_"  overflow="visible"/>
					</clipPath>
					<path clip-path="url(#SVGID_6_)" fill="#7A4300" d="M207.3,39.5c-0.5,0-1,0.1-1.5,0.1c-5.3,7.9-10.8,15.8-16.4,23.6
						c-5.5,7.7-11.1,15.5-17,22.7c-6,7.2-12.2,14.1-18.3,21.3c-6.2,7.2-9.1,16.7-16.1,23.6c-0.5,0.9,0.1,1.4,0.1,2.1
						c0.1,3-3.4,4.3-5.1,6.9c-1.5,2.2-3.3,6.2-3.3,6.2l1.4-0.3c0,0,2.8-1.9,5.4-3.1c1.8-1.5,2-4.2,3.6-5.7c1.1-1,2.6-1.2,4.2-1.4
						c3.2-6.4,8.1-11.3,12.5-16.4c2.7-3.2,5.1-7.2,7.3-11c4.3-7.5,8.3-15.3,13.4-23.2c8.1-12.6,17.7-25.3,26.6-37.5
						C206.3,44.5,209.9,41.8,207.3,39.5z M157.3,106.7c2.7-3.6,8-10.4,12-14.9C166.5,95.4,161.4,102.4,157.3,106.7z M169.9,90.9
						c-0.3,0.2,0.2-0.6,1.1-1.3C171.4,89.4,170.3,90.6,169.9,90.9z M172.4,87.8C173.1,87.3,170.4,89.4,172.4,87.8L172.4,87.8z
						 M174.2,85.5C172.1,87.2,174.8,85.1,174.2,85.5L174.2,85.5z"/>
				</g>
			</g>
		</g>
	</g>
</g>
</svg>
