<?xml version="1.0" encoding="utf-8"?>
<!-- Generator: Adobe Illustrator 18.1.1, SVG Export Plug-In . SVG Version: 6.00 Build 0)  -->
<svg version="1.1" id="圖層_1" xmlns="http://www.w3.org/2000/svg" xmlns:xlink="http://www.w3.org/1999/xlink" x="0px" y="0px"
	 viewBox="-688.3 33.5 2208.2 547.3" enable-background="new -688.3 33.5 2208.2 547.3" xml:space="preserve">
<g>
	<defs>
		<polygon id="SVGID_1_" points="1410.1,206.4 1410.1,130.8 1197.3,130.8 1197.3,206.4 299.6,206.4 299.6,564.4 1457.8,564.4 
			1457.8,206.4 		"/>
	</defs>
	<clipPath id="SVGID_2_">
		<use xlink:href="#SVGID_1_"  overflow="visible"/>
	</clipPath>
	<g clip-path="url(#SVGID_2_)">
		<g>
			<g>
				<path fill="#5B7500" d="M359.3,634.6c0-4.8-0.4-9.5-0.7-13.9c1.1,0,2.6,0.4,4,0.4s2.9,0,4.8,0c1.8,0,3.3,0,4.8,0s2.9-0.4,4-0.4
					c-0.4,4.8-0.4,9.5-0.7,13.9c0,4.8-0.4,9.9-0.4,16.1v14.6c0,4,0,8,0,12.1c0,3.7,0,7.3,0,9.9c4,0,8.4,0,12.4-0.4
					c4-0.4,8.4-0.7,12.4-1.1c0,0.7-0.4,1.5-0.4,2.2s0,1.5,0,2.6c0,1.1,0,2.2,0,2.6c0,0.7,0,1.1,0.4,1.5c-1.8,0-4.4,0-7.3,0
					c-2.9,0-7,0-11.7,0c-4.4,0-8,0-10.6,0c-2.6,0-4.8,0-6.6,0c-1.5,0-2.9,0-3.7,0c-0.7,0-1.5,0-2.2,0c0.4-4.4,0.4-9.1,0.7-13.9
					c0-4.8,0.4-9.9,0.4-16.1V650C359.7,644.9,359.3,639.4,359.3,634.6z"/>
				<path fill="#5B7500" d="M477.9,695.3c-1.8,0-3.3-0.4-4.8-0.4s-2.9,0-4.8,0c-1.8,0-2.9,0-4.8,0c-1.5,0-2.9,0-4.8,0.4
					c-1.1-3.7-2.2-7.3-3.7-11c-1.1-3.7-2.6-7.3-4-11c-2.2,0-4.8,0-7,0s-4.8,0-7,0c-1.8,0-3.7,0-5.5,0c-1.8,0-3.7,0-5.5,0
					c-1.5,3.7-2.9,7.3-4,11c-1.1,3.7-2.2,7.3-3.3,11c-0.7,0-1.8-0.4-2.6-0.4s-1.8,0-2.6,0s-1.8,0-2.6,0c-0.7,0-1.8,0-2.9,0.4
					c0.7-1.8,2.2-4.4,3.3-7.7c1.5-3.3,2.9-7,4.8-11.3c1.8-4,3.7-8.8,5.5-13.5c1.8-4.8,4-9.5,5.9-14.6c1.8-4.8,4-9.9,5.9-14.6
					c1.8-4.8,3.7-9.1,5.1-13.5c0.7,0,1.5,0.4,2.2,0.4c0.7,0,1.5,0,2.2,0s1.5,0,2.2,0c0.7,0,1.5-0.4,2.2-0.4
					c2.2,6.2,4.8,12.8,7.3,19.8s5.5,13.9,8,20.9c2.6,7,5.1,13.2,7.7,19.4C473.5,685.8,475.7,691,477.9,695.3z M439.5,641.2
					c-1.8,4.4-3.7,8.8-5.5,12.8c-1.8,4.4-3.3,8.4-4.8,12.8H449c-1.5-4.4-3.3-8.8-4.8-12.8C442.8,649.6,441.3,645.2,439.5,641.2z"/>
				<path fill="#5B7500" d="M492.5,629.5c0-3.3-0.4-6.6-0.4-9.1c2.2,0.4,3.7,0.4,4.8,0.4c1.1,0,2.9,0,4.8-0.4
					c8,8.8,15.7,17.6,23.4,26c7.7,8.4,15.7,17.2,23.8,26v-9.5v-10.6c0-3.7,0-7,0-10.6c0-3.3,0-6.6,0-9.5c0-2.9,0-5.5-0.4-7.3
					c0-2.2-0.4-3.7-0.4-4.4c2.2,0.4,3.7,0.4,4.8,0.4c1.1,0,2.9,0,4.8-0.4c-0.4,6.6-0.7,12.4-0.7,17.9c-0.4,5.5-0.4,10.2-0.4,15
					c0,4.8-0.4,9.5-0.4,13.9c0,4.8,0,9.5,0,14.6V695c-1.5,0-2.9-0.4-4.4-0.4c-1.5,0-2.9,0-4.4,0.4c-15-17.6-30.7-34.8-47.6-52.3
					c0,2.2,0,4,0,6.2c0,2.2,0,4.4,0,6.6v12.4c0,4.4,0,8,0,11c0,2.9,0,5.5,0,7.7c0,2.2,0,3.7,0.4,5.1c0,1.5,0,2.6,0.4,3.3
					c-0.7,0-1.8-0.4-2.6-0.4s-1.8,0-2.6,0c-1.8,0-3.3,0-5.1,0.4c0-0.7,0.4-2.6,0.4-6.2c0.4-3.7,0.4-8,0.7-12.8
					c0.4-5.1,0.4-10.6,0.7-16.5c0-5.9,0.4-11.7,0.4-17.2C492.9,637.2,492.5,633.2,492.5,629.5z"/>
				<path fill="#5B7500" d="M632.3,628.8c-3.7-1.8-7.7-2.9-12.8-2.9c-3.3,0-6.6,0.7-9.9,2.2s-6.2,3.7-8.8,6.2
					c-2.6,2.9-4.8,6.2-6.2,10.6c-1.5,4.4-2.6,9.1-2.6,15c0,4.4,0.7,8.4,1.8,12.1c1.1,3.7,2.9,7,5.1,9.5s5.1,4.8,8.4,6.2
					c3.3,1.5,7,2.2,11.3,2.2c1.1,0,2.2,0,3.3,0c1.1,0,2.2-0.4,3.7-0.4c1.1,0,2.2-0.4,2.9-0.7c1.1-0.4,1.5-0.4,2.2-0.7
					c0-0.7,0.4-1.8,0.4-3.3s0-2.9,0-4.4c0-5.9,0-10.2-0.4-13.2c-0.4-2.9-0.4-4.8-0.4-5.9c0.7,0,1.8,0.4,2.9,0.4c1.1,0,2.9,0,5.1,0
					c2.6,0,4.4,0,5.9,0c1.1,0,2.2-0.4,2.9-0.4c0,0.7-0.4,1.5-0.4,2.9c0,1.5-0.4,2.9-0.4,4.4c0,1.8,0,3.7,0,5.5s0,3.7,0,5.5v3.7
					c0,1.8,0,3.7,0,5.1c0,1.5,0,2.6,0.4,3.3c-4.8,1.5-9.5,2.6-14.6,3.3c-4.8,0.7-9.9,1.1-14.6,1.1c-6.2,0-12.1-0.7-17.2-2.6
					c-5.1-1.5-9.9-4-13.5-7.3c-3.7-3.3-7-7-8.8-11.3c-2.2-4.4-3.3-9.5-3.3-15c0-7,1.1-12.8,3.3-17.9c2.2-5.1,5.5-9.5,9.5-12.8
					c4-3.3,8.8-5.9,14.3-7.7c5.5-1.8,11.3-2.6,17.9-2.6c5.5,0,10.2,0.7,14.3,1.8c4,1.1,8,2.6,12.1,4.8c-0.7,1.8-1.1,3.7-1.8,5.5
					c-0.4,1.8-1.1,3.7-1.5,5.5h-1.5C638.9,633.5,635.9,631,632.3,628.8z"/>
				<path fill="#5B7500" d="M686.4,695.3c-4-1.1-7.7-2.6-10.6-4.8c-2.9-2.2-5.5-5.1-7-8.8c-1.8-3.7-2.6-8-2.6-13.2
					c0-2.9,0-5.5,0-7.7c0-2.2,0-4.4,0-6.2s0-3.7,0-5.5s0-3.7,0-5.5c0-5.9,0-10.6,0-14.3c0-3.7-0.4-6.2-0.4-8c1.5,0,2.9,0.4,4.4,0.4
					c1.5,0,2.9,0,4.4,0s2.9,0,4.4,0c1.5,0,2.9-0.4,4.4-0.4c-0.7,7-1.1,13.5-1.5,19.8c0,6.2-0.4,12.1-0.4,18.3
					c0,6.6,0.4,12.1,1.5,16.1s2.2,7.3,4,9.5c1.8,2.2,4,3.7,7,4.4c2.6,0.7,5.9,1.1,9.5,1.1c4.4,0,7.7-1.1,10.2-3.3s4.4-5.1,5.5-8.8
					c1.1-3.7,2.2-7.7,2.2-12.4c0.4-4.8,0.4-9.5,0.4-14.6c0-5.1,0-9.9-0.4-15c0-5.1-0.4-9.9-0.7-15c1.1,0,1.8,0.4,2.9,0.4
					c1.1,0,1.8,0,2.6,0c1.1,0,1.8,0,2.6,0s1.8-0.4,2.6-0.4c0,1.5-0.4,3.7-0.4,6.6c0,2.6-0.4,5.9-0.4,9.1c0,3.7-0.4,7.3-0.4,11.7
					c0,4.4,0,8.8,0,13.5c0,12.4-2.6,21.6-8,27.1s-13.5,8-23.8,8C694.8,696.8,690.4,696.1,686.4,695.3z"/>
				<path fill="#5B7500" d="M814.8,695.3c-1.8,0-3.3-0.4-4.8-0.4s-2.9,0-4.8,0c-1.5,0-2.9,0-4.8,0c-1.5,0-2.9,0-4.8,0.4
					c-1.1-3.7-2.2-7.3-3.7-11c-1.1-3.7-2.6-7.3-4-11c-2.2,0-4.8,0-7,0s-4.8,0-7,0c-1.8,0-3.7,0-5.5,0s-3.7,0-5.5,0
					c-1.5,3.7-2.9,7.3-4,11c-1.1,3.7-2.2,7.3-3.3,11c-0.7,0-1.8-0.4-2.6-0.4s-1.8,0-2.6,0s-1.8,0-2.6,0s-1.8,0-2.9,0.4
					c0.7-1.8,2.2-4.4,3.3-7.7c1.5-3.3,2.9-7,4.8-11.3c1.8-4,3.7-8.8,5.5-13.5c1.8-4.8,4-9.5,5.9-14.6c1.8-4.8,4-9.9,5.9-14.6
					c1.8-4.8,3.7-9.1,5.1-13.5c0.7,0,1.5,0.4,2.2,0.4s1.5,0,2.2,0c0.7,0,1.5,0,2.2,0c0.7,0,1.5-0.4,2.2-0.4
					c2.2,6.2,4.8,12.8,7.3,19.8s5.5,13.9,8,20.9c2.6,7,5.1,13.2,7.7,19.4C810.4,685.8,812.6,691,814.8,695.3z M776.4,641.2
					c-1.8,4.4-3.7,8.8-5.5,12.8c-1.8,4.4-3.3,8.4-4.8,12.8h19.8c-1.5-4.4-3.3-8.8-4.8-12.8C779.7,649.6,778.3,645.2,776.4,641.2z"/>
				<path fill="#5B7500" d="M882.2,628.8c-3.7-1.8-7.7-2.9-12.8-2.9c-3.3,0-6.6,0.7-9.9,2.2s-6.2,3.7-8.8,6.2
					c-2.6,2.9-4.8,6.2-6.2,10.6c-1.5,4.4-2.6,9.1-2.6,15c0,4.4,0.7,8.4,1.8,12.1c1.1,3.7,2.9,7,5.1,9.5c2.2,2.6,5.1,4.8,8.4,6.2
					c3.3,1.5,7,2.2,11.3,2.2c1.1,0,2.2,0,3.3,0s2.2-0.4,3.7-0.4c1.1,0,2.2-0.4,2.9-0.7c1.1-0.4,1.5-0.4,2.2-0.7
					c0-0.7,0.4-1.8,0.4-3.3s0-2.9,0-4.4c0-5.9,0-10.2-0.4-13.2c-0.4-2.9-0.4-4.8-0.4-5.9c0.7,0,1.8,0.4,2.9,0.4c1.1,0,2.9,0,5.1,0
					c2.6,0,4.4,0,5.9,0c1.1,0,2.2-0.4,2.9-0.4c0,0.7-0.4,1.5-0.4,2.9c0,1.5-0.4,2.9-0.4,4.4c0,1.8,0,3.7,0,5.5s0,3.7,0,5.5v3.7
					c0,1.8,0,3.7,0,5.1c0,1.5,0,2.6,0.4,3.3c-4.8,1.5-9.5,2.6-14.6,3.3c-4.8,0.7-9.9,1.1-14.6,1.1c-6.2,0-12.1-0.7-17.2-2.6
					c-5.1-1.5-9.9-4-13.5-7.3c-3.7-3.3-7-7-8.8-11.3c-2.2-4.4-3.3-9.5-3.3-15c0-7,1.1-12.8,3.3-17.9c2.2-5.1,5.5-9.5,9.5-12.8
					s8.8-5.9,14.3-7.7c5.5-1.8,11.3-2.6,17.9-2.6c5.5,0,10.2,0.7,14.3,1.8c4,1.1,8,2.6,12.1,4.8c-0.7,1.8-1.1,3.7-1.8,5.5
					c-0.4,1.8-1.1,3.7-1.5,5.5h-1.5C888.4,633.5,885.4,631,882.2,628.8z"/>
				<path fill="#5B7500" d="M914.7,634.6c0-4.8-0.4-9.5-0.7-13.9c3.3,0,6.6,0,9.5,0.4c3.3,0,6.6,0.4,9.5,0.4c5.5,0,10.2,0,14.3,0
					c4,0,7-0.4,8.4-0.4c-0.4,1.1-0.4,2.6-0.4,4.4c0,1.1,0,2.2,0,2.6c0,0.7,0,1.5,0.4,2.2c-2.2,0-4.4-0.4-7-0.4
					c-2.6,0-4.8-0.4-7.3-0.4c-2.2,0-4.4-0.4-6.2-0.4c-1.8,0-3.3,0-4,0c-0.4,4-0.4,8-0.4,11.7c0,4,0,7.7,0,11.7c4.8,0,9.1,0,12.8-0.4
					c3.7,0,7.7-0.4,11.7-0.7c-0.4,1.1-0.4,2.2-0.4,2.9c0,0.7,0,1.5,0,2.2s0,1.1,0,1.8s0.4,1.5,0.4,2.6c-8.4-0.7-16.5-1.1-24.5-1.1
					c0,2.2,0,4.8,0,7s0,4.8,0,7c0,4.8,0,9.1,0.4,13.5c4,0,8.4,0,12.4-0.4c4-0.4,8.4-0.7,12.4-1.1c0,0.7-0.4,1.5-0.4,2.2
					c0,0.7,0,1.5,0,2.6c0,1.1,0,2.2,0,2.6c0,0.7,0,1.1,0.4,1.5c-1.8,0-4.4,0-7.3,0c-2.9,0-7,0-11.7,0c-4.4,0-8,0-10.6,0
					s-4.8,0-6.6,0c-1.5,0-2.9,0-3.7,0s-1.5,0-2.2,0c0.4-4.4,0.4-9.1,0.7-13.9c0-4.8,0.4-9.9,0.4-16.1V650
					C915.1,644.9,914.7,639.4,914.7,634.6z"/>
				<path fill="#5B7500" d="M1063.3,687.7c-0.4,1.5-0.7,2.9-0.7,4.8c-5.9,2.9-13.2,4.4-22.3,4.4c-6.2,0-12.1-0.7-16.8-2.6
					c-5.1-1.8-9.1-4.4-12.4-7.7c-3.3-3.3-6.2-7-8-11.3c-1.8-4.4-2.6-9.1-2.6-14.3c0-7.7,1.1-13.9,3.7-19c2.2-5.1,5.5-9.5,9.5-12.8
					s8.4-5.9,13.9-7.3c5.1-1.5,10.6-2.2,16.5-2.2c1.8,0,4,0,5.9,0.4c2.2,0.4,4,0.7,6.2,1.1c1.8,0.4,3.7,1.1,5.5,1.8
					c1.8,0.7,3.3,1.5,4.4,2.2c-0.7,1.8-1.5,3.7-1.8,5.5c-0.4,1.8-0.7,3.7-0.7,5.5h-1.5c-2.9-3.7-5.5-5.9-8.4-7.3
					c-2.9-1.5-6.2-2.2-10.2-2.2c-2.9,0-5.9,0.7-8.8,1.8c-2.9,1.5-5.5,3.3-8,5.9c-2.6,2.6-4.4,6.2-5.9,10.2c-1.5,4-2.2,9.1-2.2,15
					c0,5.5,0.7,10.2,2.2,14.3c1.5,4,3.7,7.3,5.9,9.5c2.6,2.6,5.1,4.4,8.4,5.5c2.9,1.1,6.2,1.8,9.1,1.8c1.8,0,3.7-0.4,5.5-0.7
					c1.8-0.4,3.7-1.1,5.5-1.5c1.8-0.7,3.3-1.5,5.1-2.6c1.5-1.1,2.9-2.2,4-3.3l1.5,0.7C1064,684.4,1063.6,686.2,1063.3,687.7z"/>
				<path fill="#5B7500" d="M1079.7,634.6c0-4.8-0.4-9.5-0.7-13.9c3.3,0,6.6,0,9.5,0.4c3.3,0,6.6,0.4,9.5,0.4c5.5,0,10.2,0,14.3,0
					c4,0,7-0.4,8.4-0.4c-0.4,1.1-0.4,2.6-0.4,4.4c0,1.1,0,2.2,0,2.6c0,0.7,0,1.5,0.4,2.2c-2.2,0-4.4-0.4-7-0.4s-4.8-0.4-7.3-0.4
					c-2.2,0-4.4-0.4-6.2-0.4c-1.8,0-3.3,0-4,0c-0.4,4-0.4,8-0.4,11.7c0,4,0,7.7,0,11.7c4.8,0,9.1,0,12.8-0.4c3.7,0,7.7-0.4,12.1-0.7
					c-0.4,1.1-0.4,2.2-0.4,2.9c0,0.7,0,1.5,0,2.2s0,1.1,0,1.8s0.4,1.5,0.4,2.6c-8.4-0.7-16.5-1.1-24.5-1.1c0,2.2,0,4.8,0,7
					s0,4.8,0,7c0,4.8,0,9.1,0.4,13.5c4,0,8.4,0,12.4-0.4c4-0.4,8.4-0.7,12.4-1.1c0,0.7-0.4,1.5-0.4,2.2c0,0.7,0,1.5,0,2.6
					c0,1.1,0,2.2,0,2.6c0,0.7,0,1.1,0.4,1.5c-1.8,0-4.4,0-7.3,0c-2.9,0-7,0-11.7,0c-4.4,0-8,0-10.6,0c-2.6,0-4.8,0-6.6,0
					c-1.8,0-2.9,0-3.7,0c-0.7,0-1.5,0-2.2,0c0.4-4.4,0.4-9.1,0.7-13.9c0-4.8,0.4-9.9,0.4-16.1V650
					C1080.1,644.9,1080.1,639.4,1079.7,634.6z"/>
				<path fill="#5B7500" d="M1139,629.5c0-3.3-0.4-6.6-0.4-9.1c2.2,0.4,3.7,0.4,4.8,0.4s2.9,0,4.8-0.4c8,8.8,15.7,17.6,23.4,26
					c7.7,8.4,15.7,17.2,23.8,26v-9.5v-10.6c0-3.7,0-7,0-10.6c0-3.3,0-6.6,0-9.5c0-2.9,0-5.5-0.4-7.3c0-2.2-0.4-3.7-0.4-4.4
					c2.2,0.4,3.7,0.4,4.8,0.4s2.9,0,4.8-0.4c-0.4,6.6-0.7,12.4-0.7,17.9c-0.4,5.5-0.4,10.2-0.4,15c0,4.8-0.4,9.5-0.4,13.9
					c0,4.8,0,9.5,0,14.6V695c-1.5,0-2.9-0.4-4.4-0.4s-2.9,0-4.4,0.4c-15-17.6-30.7-34.8-47.6-52.3c0,2.2,0,4,0,6.2
					c0,2.2,0,4.4,0,6.6v12.4c0,4.4,0,8,0,11c0,2.9,0,5.5,0,7.7c0,2.2,0,3.7,0.4,5.1c0,1.5,0,2.6,0.4,3.3c-0.7,0-1.8-0.4-2.6-0.4
					c-0.7,0-1.8,0-2.6,0c-1.8,0-3.3,0-5.1,0.4c0-0.7,0.4-2.6,0.4-6.2c0.4-3.7,0.4-8,0.7-12.8c0.4-5.1,0.4-10.6,0.7-16.5
					c0-5.9,0.4-11.7,0.4-17.2C1139.3,637.2,1139,633.2,1139,629.5z"/>
				<path fill="#5B7500" d="M1238.1,632.4c0-1.8,0-2.9-0.4-3.7c-1.1,0-2.6,0-4,0s-3.3,0-5.1,0.4c-1.8,0-3.7,0.4-5.5,0.4
					c-1.8,0-3.7,0.4-5.1,0.7c0-0.7,0.4-1.5,0.4-2.6c0-0.7,0-1.5,0-2.6c0-1.1,0-1.5,0-2.6c0-0.7-0.4-1.5-0.4-2.6c2.6,0,4.8,0,6.6,0.4
					c1.8,0,4,0,6.2,0s4.4,0,6.6,0c2.6,0,5.5,0,8.8,0c3.3,0,6.2,0,8.8,0c2.6,0,4.8,0,6.6,0c2.2,0,4,0,5.9,0c1.8,0,4,0,6.2-0.4
					c0,0.7-0.4,1.5-0.4,2.6c0,0.7,0,1.5,0,2.6c0,1.1,0,1.5,0,2.6c0,0.7,0.4,1.5,0.4,2.6c-1.5-0.4-2.9-0.4-4.8-0.7
					c-1.8,0-3.7-0.4-5.5-0.4c-1.8,0-3.3-0.4-5.1-0.4c-1.5,0-2.9,0-4,0c0,0.4,0,0.7,0,1.5c0,0.7,0,1.5,0,2.2v5.9v27.1
					c0,5.9,0,11.3,0.4,16.1c0,4.8,0.4,9.1,0.7,13.9c-1.1,0-2.6-0.4-4-0.4s-2.9,0-4.8,0c-1.8,0-3.3,0-4.8,0s-2.9,0-4,0.4
					c0.4-4.4,0.4-9.1,0.7-13.9c0-4.8,0.4-9.9,0.4-16.1v-27.1C1238.1,636.1,1238.1,634.2,1238.1,632.4z"/>
				<path fill="#5B7500" d="M1287.2,634.6c0-4.8-0.4-9.5-0.7-13.9c3.3,0,6.6,0,9.5,0.4c3.3,0,6.6,0.4,9.5,0.4c5.5,0,10.2,0,14.3,0
					s7-0.4,8.4-0.4c-0.4,1.1-0.4,2.6-0.4,4.4c0,1.1,0,2.2,0,2.6c0,0.7,0,1.5,0.4,2.2c-2.2,0-4.4-0.4-7-0.4c-2.6,0-4.8-0.4-7.3-0.4
					c-2.2,0-4.4-0.4-6.2-0.4c-1.8,0-3.3,0-4,0c-0.4,4-0.4,8-0.4,11.7c0,4,0,7.7,0,11.7c4.8,0,9.1,0,12.8-0.4c3.7,0,7.7-0.4,12.1-0.7
					c-0.4,1.1-0.4,2.2-0.4,2.9c0,0.7,0,1.5,0,2.2s0,1.1,0,1.8s0.4,1.5,0.4,2.6c-8.4-0.7-16.5-1.1-24.5-1.1c0,2.2,0,4.8,0,7
					s0,4.8,0,7c0,4.8,0,9.1,0.4,13.5c4,0,8.4,0,12.4-0.4c4-0.4,8.4-0.7,12.4-1.1c0,0.7-0.4,1.5-0.4,2.2c0,0.7,0,1.5,0,2.6
					c0,1.1,0,2.2,0,2.6c0,0.7,0,1.1,0.4,1.5c-1.8,0-4.4,0-7.3,0s-7,0-11.7,0c-4.4,0-8,0-10.6,0c-2.6,0-4.8,0-6.6,0
					c-1.5,0-2.9,0-3.7,0c-0.7,0-1.5,0-2.2,0c0.4-4.4,0.4-9.1,0.7-13.9c0-4.8,0.4-9.9,0.4-16.1V650
					C1287.5,644.9,1287.5,639.4,1287.2,634.6z"/>
				<path fill="#5B7500" d="M1361.8,661v4.4c0,5.9,0,11.3,0.4,16.1c0,4.8,0.4,9.1,0.7,13.9c-1.1,0-2.6-0.4-4-0.4c-1.5,0-2.9,0-4.8,0
					s-3.3,0-4.8,0c-1.5,0-2.9,0-4,0.4c0.4-4.4,0.4-9.1,0.7-13.9c0-4.8,0.4-9.9,0.4-16.1v-14.6c0-5.9,0-11.3-0.4-16.1
					c0-4.8-0.4-9.5-0.7-13.9c1.1,0,2.6,0.4,4,0.4c1.5,0,2.9,0,4.8,0s4,0,6.6-0.4c2.6,0,5.5-0.4,9.1-0.4c2.9,0,5.1,0,7,0.4
					c1.8,0,3.7,0.4,5.1,0.7c1.5,0.4,2.6,0.7,3.7,1.1c1.1,0.4,2.2,1.1,2.9,1.8c2.2,1.5,4,3.7,5.1,5.9c1.1,2.2,1.8,5.1,1.8,8.4
					c0,5.1-1.5,9.5-4.4,12.8c-2.9,3.3-7,5.9-12.4,7c3.3,6.2,7.3,12.4,11.3,18.3c4,6.2,8,12.1,12.1,18.3c-1.8,0-3.3-0.4-4.8-0.4
					s-3.3,0-4.8,0c-1.8,0-3.3,0-5.1,0c-1.5,0-3.3,0-5.1,0.4l-19.4-34.4h-1.1V661z M1377.9,633.5c-0.7-1.8-1.8-3.3-2.9-4.4
					c-1.5-1.1-2.9-1.5-5.1-1.8c-2.2-0.4-4.8-0.4-7.7-0.4c-0.4,9.9-0.4,19.8-0.4,29.6c0.4,0,0.7,0,1.1,0s0.7,0,1.1,0
					c4.8,0,8.4-1.5,11-4s3.7-6.6,3.7-11.7C1379,637.9,1378.6,635.3,1377.9,633.5z"/>
			</g>
		</g>
		<g>
			<g>
				<path fill="#A57536" d="M1440.8,329.9c-7,21.6-53.4,36.6-61.5,6.2C1390.7,313.8,1422.5,320,1440.8,329.9z"/>
				<path fill="#83A80D" d="M1420,401.2c-31.5,24.5-95.5,25.6-102.4-20.9C1350.4,342.7,1401.3,375.2,1420,401.2z"/>
				<path fill="#83A80D" d="M1395.8,261.8c-1.8,39.9-41,83.4-83.8,60C1309.5,276.8,1344.2,262.2,1395.8,261.8z"/>
				<path fill="#A57536" d="M1396.5,479.5c-22,3.7-33.7-4.8-46.1-12.8c-0.4-14.3-5.9-12.8-2.2-24.1
					C1372.4,431.9,1392.2,453.9,1396.5,479.5z"/>
				<path fill="#A57536" d="M1358.5,196.3c1.5,28.2-2.9,52-32.6,55.2C1309.8,223,1334.7,202.5,1358.5,196.3z"/>
				<path fill="#83A80D" d="M1334,509.9c-39.9-2.6-82.3-41-60-83.8C1321.5,420.2,1332.5,459.4,1334,509.9z"/>
				<path fill="#83A80D" d="M1266.3,277.9c-43.5-20.5-16.1-86.3,17.9-98.4C1305.1,209.5,1307.6,272.1,1266.3,277.9z"/>
				<path fill="#A57536" d="M1222.4,220.1c-27.4-1.5-19.8-41.3-12.4-57.4C1232.3,162.3,1244.7,211,1222.4,220.1z"/>
				<path fill="#83A80D" d="M1201.5,287.8c-47.2,5.1-58.9-32.9-60-83.8C1181.8,206.2,1223.9,244.2,1201.5,287.8z"/>
				<path fill="#A57536" d="M1130.9,273.9c-27.8,13.9-46.5-11-52-36.2C1107.9,235.8,1129.5,242.8,1130.9,273.9z"/>
			</g>
			<g>
				<path fill="#A57536" d="M338.5-159.3c2.2,22.7,43.9,47.2,58.9,19.4C390.8-164.4,358.6-165.1,338.5-159.3z"/>
				<path fill="#83A80D" d="M343.3-85.4c25.2,30.7,87.4,45.7,104.3,1.8C424.1-127.5,367-106.6,343.3-85.4z"/>
				<path fill="#83A80D" d="M397-216c-7,39.5,22,90.4,68.8,76.8C478.3-182.7,447.5-204.3,397-216z"/>
				<path fill="#A57536" d="M349.1-3.8c20.5,8.4,34,2.6,47.9-2.6c3.7-13.9,8.4-11.3,7.7-23C383.1-44.8,358.6-27.9,349.1-3.8z"/>
				<path fill="#A57536" d="M447.9-272c-7.3,27.4-8.4,51.6,19.8,60.7C489.6-235.4,469.5-260.6,447.9-272z"/>
				<path fill="#83A80D" d="M403.6,39.4c39.5,6.2,89.3-22.3,76.8-68.8C435.1-45.5,416.1-9.7,403.6,39.4z"/>
				<path fill="#83A80D" d="M520-172.1c46.8-10.6,34.4-80.9,4-100.2C497.3-247.5,480.8-187.1,520-172.1z"/>
				<path fill="#A57536" d="M575.6-218.9c27.1,4.4,28.5-36.2,24.9-53.4C578.5-277.8,555.8-232.8,575.6-218.9z"/>
				<path fill="#83A80D" d="M581.1-148.3c45,15,64.8-19.4,76.8-68.8C618.4-223.7,568.6-195.9,581.1-148.3z"/>
				<path fill="#A57536" d="M643.6-153.4c24.1,19.4,47.6-0.7,58.5-24.1C674.3-186,652-183.8,643.6-153.4z"/>
			</g>
			<g>
				<path fill="#5B7500" d="M533.5,196c-30.7,0-33.3,10.6-33.3-166.8c0-172.3,9.9-155.5,30.7-155.5h34.4c26.3,0,35.1,1.5,35.1,7.7
					c0,18.7-11.7,37.3-11.7,92.2c0,127,27.8,204.9,27.8,209.6c0,16.1-26.3,13.2-40.6,13.2h-42.4V196z"/>
				<path fill="#5B7500" d="M949.1-39.7c27.8,0,33.3,0,33.3,20.9c0,154.8-151.5,224.6-177.8,224.6c-18.3,0-177.4-66.2-177.4-234.1
					c0-10.6,3.3-11.3,24.5-11.3h52.7c11,0,37.7-1.8,37.7,5.9c0,8.4-1.1,16.1-1.1,32.6c0,90.7,51.6,126.2,69.9,126.2
					C838.6,125,884,74.5,884,2.8c0-12.8-3.7-20.1-3.7-31.5c0-8.4,13.2-10.6,28.9-10.6h39.9V-39.7z"/>
				<path fill="#5B7500" d="M1024.8,155.3c0-4.4,1.1-15,14.6-15c58.5,0,73.9-13.5,73.9-18.3c0-15.4-88.9-41.7-88.9-144.1
					c0-16.5-0.4-17.2,19.4-17.2h41.7c6.6,0,17.9-1.1,17.9,6.6c0,5.1-4.4,16.5-4.4,27.8c0,43.2,50.1,83.4,60,83.4
					c20.5,0,34-44.3,34-72.4c0-18.3-5.5-34-5.5-39.9c0-6.6,12.8-5.5,18.3-5.5h45.4c9.9,1.1,8,12.8,8,28.9
					c4.4,107.9-110.9,212.6-222.8,212.6c-11.7,0-12.1-5.5-12.1-13.9v-32.9H1024.8z"/>
			</g>
			<g>
				<path fill="#5B7500" d="M465.8,545.3c-8.8,0-28.9,14.6-28.9-92.2c0-82.3,20.1-134.6,20.1-148.2c0-11-9.1-7.7-20.9-6.2
					c-32.2,4.4-78.7,30.7-86.3,30.7c-4,0-6.6,1.5-6.6-8.8c0-11.3,12.4-57.1,19.4-67.3c4.8-7,66.6-20.1,128.8-20.1
					c73.9,0,139.8,15.7,139.8,33.3c0,16.1-22.7,51.2-27.4,51.2c-7.7,0-26.7-21.6-59.6-21.6c-28.2,0-22.7,68.8-16.1,102.1
					c18.7,95.5,54.5,134.3,54.5,141.2c0,8-62.2,6.2-68.4,6.2h-48.3V545.3z"/>
				<path fill="#5B7500" d="M658.6,545.3c-16.8,0-25.2,11.3-25.2-110.5c0-102.1-3.7-124.8,9.1-125.1h38c7,0,15-1.8,15.7,5.1
					c1.1,5.5,1.8,12.4,11,12.4c7,0,14.6-5.9,24.5-11.7c9.5-5.5,20.5-11.3,32.9-11.3c23.4,0,42.8,16.1,42.8,36.2
					c0,25.6-26.3,41.3-39.9,41.3c-5.5,0,1.1-24.5-30.7-24.5c-38.4,0-37.3,49.8-37.3,71.7c0,73.2,17.9,104.3,17.9,110.9
					c-0.4,5.9-16.8,5.9-22,5.9h-37V545.3z"/>
				<path fill="#5B7500" d="M798.7,437.4c0-89.3,61.5-133.2,123.3-133.2c50.5,0,93.3,22.7,93.3,66.2c0,79.4-148.2,62.6-148.2,101
					c0,17.2,34.8,30,57.8,30c75.4,0,75.4-46.1,82-46.1c7,0,8.4,19,8.4,22c0,46.8-45,73.5-100.2,73.5
					C832.4,550.8,798.7,496.3,798.7,437.4 M860.6,400.8c0,4,2.2,8,8.4,8c5.5,0,89.3-14.6,89.3-33.7c0-17.9-21.2-27.8-38.4-27.8
					C882.2,347.4,860.6,379.6,860.6,400.8"/>
				<path fill="#5B7500" d="M1039.8,437.4c0-89.3,61.5-133.2,123.3-133.2c50.5,0,93.3,22.7,93.3,66.2c0,79.4-148.2,62.6-148.2,101
					c0,17.2,35.1,30,57.8,30c75.4,0,75.4-46.1,82-46.1c7,0,8.4,19,8.4,22c0,46.8-45,73.5-100.2,73.5
					C1073.9,550.8,1039.8,496.3,1039.8,437.4 M1102,400.8c0,4,2.2,8,8.4,8c5.5,0,89.3-14.6,89.3-33.7c0-17.9-21.2-27.8-38.4-27.8
					C1123.6,347.4,1102,379.6,1102,400.8"/>
			</g>
			<g>
				<g>
					<g>
						
							<image overflow="visible" opacity="0.75" enable-background="new    " width="363" height="408" xlink:href="B0C5CA55BA1E642D.png"  transform="matrix(0.869 0 0 0.869 647.3953 -148.0982)">
						</image>
						<g>
							<path fill="#83A80D" d="M949.8-89.4c-23.4-27.1-58.2-56.7-58.2-56.7H718.3c0,0-34.8,29.6-58.2,56.7
								c39.1,35.5,20.1,107.2,17.2,165.7c20.5,39.5,114.9,94,127.7,107.2l0,0l0,0l0,0l0,0c12.8-13.2,107.2-67.7,127.7-107.2
								C929.7,17.8,910.7-53.6,949.8-89.4z"/>
						</g>
					</g>
					<g>
						<path fill="none" d="M918.7-88.7c-23.4-22.7-43.2-37.7-43.2-37.7H734.7c0,0-20.9,16.1-43.2,37.7
							c32.2,29.3,11.3,106.8,9.1,154.8c16.8,32.6,104.6,85.2,104.6,85.2l0,0c0,0,87.8-52.7,104.6-85.2
							C907.4,18.2,886.5-59.4,918.7-88.7z"/>
						<path fill="#FFFFFF" d="M805.7,159.4c0,0-91.8-58.2-109-91.5l-0.4-1.1v-1.1c0.7-12.4,2.6-26.7,4.8-42.1
							c5.9-41.7,9.9-89.3-12.4-109.4l-3.3-2.9l3.3-2.9c22-21.2,43.2-37.3,43.2-37.3l1.1-1.5h144.5l1.1,1.5c0,0,20.1,15.4,43.2,37.3
							l3.3,2.9l-3.3,2.9c-22.3,20.1-18.3,67.7-12.4,109.4c2.2,15,4,29.6,4.8,42.1v1.1l-0.4,1.1C898.3,97.2,805.7,159.4,805.7,159.4z
							 M805.7,141.4c24.5-14.6,85.2-51.2,99.5-76.5c-0.7-12.1-2.6-25.6-4.8-40.2c-5.9-42.1-9.9-89.3,12.1-113.8
							c-17.6-17.2-35.5-29.6-39.1-33.7H736.2c-4,4-22,16.8-39.1,33.7c21.6,24.1,17.9,71.7,12.1,113.8c-2.2,14.6-4,28.2-4.8,40.2
							C720.1,92.8,805.7,141.4,805.7,141.4z"/>
					</g>
					<g>
						
							<image overflow="visible" opacity="0.75" enable-background="new    " width="242" height="317" xlink:href="B0C5CA55BA1E6433.png"  transform="matrix(0.8657 0 0 0.8657 706.1168 -119.4408)">
						</image>
						<g>
							<path fill="#FFFCEE" d="M723,45.2c5.5-5.9,10.2-8.8,11.7-10.2c1.5-1.5,8.4-6.6,12.8-7.3c0,0-9.1-6.2-15.4-15.4
								c-6.2-8.8-10.2-13.9-11.7-17.9c-1.5-4-2.9-14.3-7.7-20.5c-4.8-5.9-7.3-8-7.3-8s3.7-3.3,10.6-3.7c7,0,11.3,6.2,11.3,6.2
								s3.3-5.9,11-6.2c7.7-0.4,17.2,1.5,17.2,1.5s-4.8-20.5,4-38.4c8.8-17.9,12.8-30.4,12.4-39.9c-0.4-9.5,0-5.5,0-5.5
								s5.5,5.1,11,8.8s4.8,7.7,13.5,10.2c8.8,2.6,20.5,13.2,25.6,21.6c5.1,8.4,10.6,19.4,11.7,20.1c0.7,0.7,2.2,7.7,0.4,11.7
								c0,0,3.3,1.5,10.2,0.4c7-1.5,12.8-4.8,19.4-5.5c6.6-0.4,7.7,0.4,13.2-2.2c5.9-2.6,11.7-6.2,11.7-6.2s4.8-0.4,4.4,0.4
								c-0.4,0.7-4,10.2-4.4,16.1c0,5.9-2.6,14.3-4.8,20.9c-2.2,6.6-18.3,17.2-21.2,25.6c0,0,16.8-8,22.7-9.1
								c5.9-1.1,13.5,2.6,18.7,1.8c0,0-7,7-9.9,13.9c-2.9,6.6-16.5,27.4-24.1,35.1s-26.3,15.4-29.6,18.7
								c-3.3,3.3-20.5,12.4-20.5,12.4s-3.7,11.3-4.4,18.3s-6.6,29.6-4.4,40.6c1.8,8.8-5.5,9.1-7,9.9c-4,1.5-5.1-1.1-5.1-1.1
								l3.3-11.7c0,0,6.6-31.5,8.4-40.2c2.2-11.7-11.7-16.1-11.7-16.1l-11.3-3.3c0,0-13.2-5.1-20.9-4.8c-7.7,0.4-13.9,1.1-13.9,1.1
								s-12.1-0.7-18.7-6.6c-6.6-5.9-17.9-11.7-17.9-11.7S717.5,50.7,723,45.2"/>
						</g>
					</g>
				</g>
				<g>
					<g>
						<defs>
							<path id="SVGID_3_" d="M721.5,43c5.5-5.5,10.2-8.8,11.7-9.9c1.5-1.5,8.4-6.6,12.8-7c0,0-9.1-6.2-15.4-15
								c-6.2-8.8-9.9-13.9-11.3-17.6s-2.6-14.3-7.3-20.1c-4.4-5.9-7.3-8-7.3-8s3.7-3.3,10.6-3.3c7,0,11.3,6.2,11.3,6.2
								s3.3-5.9,11-5.9c7.7-0.4,17.2,1.5,17.2,1.5s-4.4-20.1,4.8-38c9.1-17.6,13.5-30,13.2-39.1c-0.4-9.1,0-5.5,0-5.5
								s5.5,5.1,10.6,8.8c5.1,3.7,4.4,7.7,13.5,10.2c8.8,2.6,20.1,13.2,25.2,21.6c5.1,8,10.2,19,11.3,20.1c0.7,0.7,2.2,7.7,0,11.7
								c0,0,3.3,1.5,10.2,0.4c7-1.1,12.8-4.8,19.4-5.1s7.7,0.4,13.2-1.8c5.9-2.6,12.1-6.2,12.1-6.2s4.8-0.4,4.4,0.4
								c-0.4,0.7-4.4,9.9-4.8,15.7c-0.4,5.9-2.6,13.9-5.1,20.5c-2.6,6.6-18.7,16.8-22,24.9c0,0,16.8-8,23-8.8
								c6.2-1.1,13.5,2.6,19,2.2c0,0-7.3,7-10.2,13.5c-2.9,6.6-17.2,27.1-24.9,34.4c-8,7.7-26.7,15-30.4,17.9
								c-3.3,2.9-17.2,12.8-17.2,12.8s-0.7,9.1-1.8,16.1c-0.7,7,4.8,21.6,7,32.2c-15,4.8-19,8-19,8l-20.5-9.5l13.2,0.7
								c0,0,5.5-23.8,7.7-32.6c2.6-11.7-11.3-15.7-11.3-15.7l-11.3-3.3c0,0-13.2-5.1-20.9-4.8c-7.7,0.4-14.3,1.1-14.3,1.1
								s-12.1-0.7-18.7-6.6c-6.6-5.9-17.6-11.3-17.6-11.3S716.1,48.5,721.5,43"/>
						</defs>
						<clipPath id="SVGID_4_">
							<use xlink:href="#SVGID_3_"  overflow="visible"/>
						</clipPath>
						<path clip-path="url(#SVGID_4_)" fill="#7A4300" d="M1053.7-337.8c-1.8,0-3.7,0.4-5.5,0.4c-19.4,28.9-39.5,57.8-60,86.3
							c-20.1,28.2-40.6,56.7-62.2,83c-22,26.3-44.6,51.6-67,77.9C836.4-63.8,825.8-29,800.2-3.8c-1.8,3.3,0.4,5.1,0.4,7.7
							c0.4,11-12.4,15.7-18.7,25.2c-5.5,8-12.1,22.7-12.1,22.7l5.1-1.1c0,0,10.2-7,19.8-11.3c6.6-5.5,7.3-15.4,13.2-20.9
							c4-3.7,9.5-4.4,15.4-5.1C835-10,852.9-27.9,869-46.6c9.9-11.7,18.7-26.3,26.7-40.2c15.7-27.4,30.4-56,49-84.9
							c29.6-46.1,64.8-92.6,97.3-137.2C1050.1-319.5,1063.6-329.4,1053.7-337.8z M871.2-92c9.9-13.2,29.3-38,43.9-54.5
							C904.8-133.3,886.2-107.7,871.2-92z M916.9-149.8c-1.1,0.7,0.7-2.2,4-4.8C922.4-155.3,918.4-150.9,916.9-149.8z M926.4-161.1
							C928.6-162.9,918.7-155.3,926.4-161.1L926.4-161.1z M932.6-169.5C925-163.3,934.8-171,932.6-169.5L932.6-169.5z"/>
					</g>
				</g>
			</g>
		</g>
	</g>
</g>
<g>
	<defs>
		<polygon id="SVGID_5_" points="330.2,216.8 218.4,216.8 218.4,172.5 165.2,172.5 165.2,33.5 -617.7,33.5 -617.7,564.4 
			165.2,564.4 165.2,533.8 218.4,533.8 218.4,495.6 330.2,495.6 		"/>
	</defs>
	<clipPath id="SVGID_6_">
		<use xlink:href="#SVGID_5_"  overflow="visible"/>
	</clipPath>
	<g clip-path="url(#SVGID_6_)">
		<g>
			<g>
				<path fill="#5B7500" d="M-596.9,978.9c0-4.8-0.4-9.5-0.7-13.9c1.1,0,2.6,0.4,4,0.4c1.5,0,2.9,0,4.8,0s3.3,0,4.8,0
					c1.5,0,2.9-0.4,4-0.4c-0.4,4.8-0.4,9.5-0.7,13.9c0,4.8-0.4,9.9-0.4,16.1v14.6c0,4,0,8,0,12.1c0,3.7,0,7.3,0,9.9
					c4,0,8.4,0,12.4-0.4c4-0.4,8.4-0.7,12.4-1.1c0,0.7-0.4,1.5-0.4,2.2c0,0.7,0,1.5,0,2.6s0,2.2,0,2.6c0,0.7,0,1.1,0.4,1.5
					c-1.8,0-4.4,0-7.3,0s-7,0-11.7,0c-4.4,0-8,0-10.6,0s-4.8,0-6.6,0c-1.5,0-2.9,0-3.7,0c-0.7,0-1.5,0-2.2,0
					c0.4-4.4,0.4-9.1,0.7-13.9c0-4.8,0.4-9.9,0.4-16.1v-14.6C-596.5,989.2-596.9,983.7-596.9,978.9z"/>
				<path fill="#5B7500" d="M-478.4,1039.7c-1.8,0-3.3-0.4-4.8-0.4s-2.9,0-4.8,0c-1.8,0-2.9,0-4.8,0c-1.5,0-2.9,0-4.8,0.4
					c-1.1-3.7-2.2-7.3-3.7-11c-1.1-3.7-2.6-7.3-4-11c-2.2,0-4.8,0-7,0s-4.8,0-7,0c-1.8,0-3.7,0-5.5,0s-3.7,0-5.5,0
					c-1.5,3.7-2.9,7.3-4,11c-1.1,3.7-2.2,7.3-3.3,11c-0.7,0-1.8-0.4-2.6-0.4s-1.8,0-2.6,0s-1.8,0-2.6,0c-0.7,0-1.8,0-2.9,0.4
					c0.7-1.8,2.2-4.4,3.3-7.7c1.5-3.3,2.9-7,4.8-11.3c1.8-4,3.7-8.8,5.5-13.5c1.8-4.8,4-9.5,5.9-14.6c1.8-4.8,4-9.9,5.9-14.6
					c1.8-4.8,3.7-9.1,5.1-13.5c0.7,0,1.5,0.4,2.2,0.4c0.7,0,1.5,0,2.2,0c0.7,0,1.5,0,2.2,0c0.7,0,1.5-0.4,2.2-0.4
					c2.2,6.2,4.8,12.8,7.3,19.8c2.6,7,5.5,13.9,8,20.9c2.6,7,5.1,13.2,7.7,19.4C-482.7,1030.2-480.6,1035.3-478.4,1039.7z
					 M-516.8,985.5c-1.8,4.4-3.7,8.8-5.5,12.8c-1.8,4.4-3.3,8.4-4.8,12.8h19.8c-1.5-4.4-3.3-8.8-4.8-12.8
					C-513.5,993.9-514.9,989.5-516.8,985.5z"/>
				<path fill="#5B7500" d="M-463.7,973.8c0-3.3-0.4-6.6-0.4-9.1c2.2,0.4,3.7,0.4,4.8,0.4c1.1,0,2.9,0,4.8-0.4
					c8,8.8,15.7,17.6,23.4,26c7.7,8.4,15.7,17.2,23.8,26v-9.5v-10.6c0-3.7,0-7,0-10.6c0-3.3,0-6.6,0-9.5c0-2.9,0-5.5-0.4-7.3
					c0-2.2-0.4-3.7-0.4-4.4c2.2,0.4,3.7,0.4,4.8,0.4c1.1,0,2.9,0,4.8-0.4c-0.4,6.6-0.7,12.4-0.7,17.9c-0.4,5.5-0.4,10.2-0.4,15
					c0,4.8-0.4,9.5-0.4,13.9c0,4.8,0,9.5,0,14.6v13.2c-1.5,0-2.9-0.4-4.4-0.4s-2.9,0-4.4,0.4c-15-17.6-30.7-34.8-47.6-52.3
					c0,2.2,0,4,0,6.2c0,2.2,0,4.4,0,6.6v12.4c0,4.4,0,8,0,11c0,2.9,0,5.5,0,7.7c0,2.2,0,3.7,0.4,5.1c0,1.5,0,2.6,0.4,3.3
					c-0.7,0-1.8-0.4-2.6-0.4s-1.8,0-2.6,0c-1.8,0-3.3,0-5.1,0.4c0-0.7,0.4-2.6,0.4-6.2c0.4-3.7,0.4-8,0.7-12.8
					c0.4-5.1,0.4-10.6,0.7-16.5c0-5.9,0.4-11.7,0.4-17.2C-463.4,981.5-463.7,977.5-463.7,973.8z"/>
				<path fill="#5B7500" d="M-324,973.1c-3.7-1.8-7.7-2.9-12.8-2.9c-3.3,0-6.6,0.7-9.9,2.2c-3.3,1.5-6.2,3.7-8.8,6.2
					c-2.6,2.9-4.8,6.2-6.2,10.6c-1.5,4.4-2.6,9.1-2.6,15c0,4.4,0.7,8.4,1.8,12.1c1.1,3.7,2.9,7,5.1,9.5c2.2,2.6,5.1,4.8,8.4,6.2
					c3.3,1.5,7,2.2,11.3,2.2c1.1,0,2.2,0,3.3,0s2.2-0.4,3.7-0.4c1.1,0,2.2-0.4,2.9-0.7c1.1-0.4,1.5-0.4,2.2-0.7
					c0-0.7,0.4-1.8,0.4-3.3s0-2.9,0-4.4c0-5.9,0-10.2-0.4-13.2c-0.4-2.9-0.4-4.8-0.4-5.9c0.7,0,1.8,0.4,2.9,0.4s2.9,0,5.1,0
					c2.6,0,4.4,0,5.9,0c1.1,0,2.2-0.4,2.9-0.4c0,0.7-0.4,1.5-0.4,2.9s-0.4,2.9-0.4,4.4c0,1.8,0,3.7,0,5.5c0,1.8,0,3.7,0,5.5v3.7
					c0,1.8,0,3.7,0,5.1s0,2.6,0.4,3.3c-4.8,1.5-9.5,2.6-14.6,3.3c-4.8,0.7-9.9,1.1-14.6,1.1c-6.2,0-12.1-0.7-17.2-2.6
					c-5.1-1.5-9.9-4-13.5-7.3c-3.7-3.3-7-7-8.8-11.3c-2.2-4.4-3.3-9.5-3.3-15c0-7,1.1-12.8,3.3-17.9c2.2-5.1,5.5-9.5,9.5-12.8
					s8.8-5.9,14.3-7.7c5.5-1.8,11.3-2.6,17.9-2.6c5.5,0,10.2,0.7,14.3,1.8s8,2.6,12.1,4.8c-0.7,1.8-1.1,3.7-1.8,5.5
					c-0.4,1.8-1.1,3.7-1.5,5.5h-1.5C-317.4,977.8-320.3,975.3-324,973.1z"/>
				<path fill="#5B7500" d="M-269.8,1039.7c-4-1.1-7.7-2.6-10.6-4.8c-2.9-2.2-5.5-5.1-7-8.8c-1.8-3.7-2.6-8-2.6-13.2
					c0-2.9,0-5.5,0-7.7c0-2.2,0-4.4,0-6.2c0-1.8,0-3.7,0-5.5c0-1.8,0-3.7,0-5.5c0-5.9,0-10.6,0-14.3c0-3.7-0.4-6.2-0.4-8
					c1.5,0,2.9,0.4,4.4,0.4c1.5,0,2.9,0,4.4,0s2.9,0,4.4,0s2.9-0.4,4.4-0.4c-0.7,7-1.1,13.5-1.5,19.8c0,6.2-0.4,12.1-0.4,18.3
					c0,6.6,0.4,12.1,1.5,16.1c1.1,4,2.2,7.3,4,9.5c1.8,2.2,4,3.7,7,4.4c2.6,0.7,5.9,1.1,9.5,1.1c4.4,0,7.7-1.1,10.2-3.3
					c2.6-2.2,4.4-5.1,5.5-8.8c1.1-3.7,2.2-7.7,2.2-12.4c0.4-4.8,0.4-9.5,0.4-14.6c0-5.1,0-9.9-0.4-15c0-5.1-0.4-9.9-0.7-15
					c1.1,0,1.8,0.4,2.9,0.4c1.1,0,1.8,0,2.6,0c1.1,0,1.8,0,2.6,0c0.7,0,1.8-0.4,2.6-0.4c0,1.5-0.4,3.7-0.4,6.6
					c0,2.6-0.4,5.9-0.4,9.1c0,3.7-0.4,7.3-0.4,11.7c0,4.4,0,8.8,0,13.5c0,12.4-2.6,21.6-8,27.1s-13.5,8-23.8,8
					C-261.4,1041.1-265.8,1040.4-269.8,1039.7z"/>
				<path fill="#5B7500" d="M-141.4,1039.7c-1.8,0-3.3-0.4-4.8-0.4c-1.5,0-2.9,0-4.8,0c-1.5,0-2.9,0-4.8,0c-1.5,0-2.9,0-4.8,0.4
					c-1.1-3.7-2.2-7.3-3.7-11c-1.1-3.7-2.6-7.3-4-11c-2.2,0-4.8,0-7,0c-2.2,0-4.8,0-7,0c-1.8,0-3.7,0-5.5,0s-3.7,0-5.5,0
					c-1.5,3.7-2.9,7.3-4,11c-1.1,3.7-2.2,7.3-3.3,11c-0.7,0-1.8-0.4-2.6-0.4c-0.7,0-1.8,0-2.6,0c-0.7,0-1.8,0-2.6,0
					c-0.7,0-1.8,0-2.9,0.4c0.7-1.8,2.2-4.4,3.3-7.7c1.5-3.3,2.9-7,4.8-11.3c1.8-4,3.7-8.8,5.5-13.5c1.8-4.8,4-9.5,5.9-14.6
					c1.8-4.8,4-9.9,5.9-14.6s3.7-9.1,5.1-13.5c0.7,0,1.5,0.4,2.2,0.4c0.7,0,1.5,0,2.2,0c0.7,0,1.5,0,2.2,0c0.7,0,1.5-0.4,2.2-0.4
					c2.2,6.2,4.8,12.8,7.3,19.8c2.6,7,5.5,13.9,8,20.9c2.6,7,5.1,13.2,7.7,19.4C-145.8,1030.2-143.6,1035.3-141.4,1039.7z
					 M-179.8,985.5c-1.8,4.4-3.7,8.8-5.5,12.8c-1.8,4.4-3.3,8.4-4.8,12.8h19.8c-1.5-4.4-3.3-8.8-4.8-12.8
					C-176.5,993.9-178,989.5-179.8,985.5z"/>
				<path fill="#5B7500" d="M-74.1,973.1c-3.7-1.8-7.7-2.9-12.8-2.9c-3.3,0-6.6,0.7-9.9,2.2c-3.3,1.5-6.2,3.7-8.8,6.2
					c-2.6,2.9-4.8,6.2-6.2,10.6c-1.5,4.4-2.6,9.1-2.6,15c0,4.4,0.7,8.4,1.8,12.1c1.1,3.7,2.9,7,5.1,9.5c2.2,2.6,5.1,4.8,8.4,6.2
					c3.3,1.5,7,2.2,11.3,2.2c1.1,0,2.2,0,3.3,0c1.1,0,2.2-0.4,3.7-0.4c1.1,0,2.2-0.4,2.9-0.7c1.1-0.4,1.5-0.4,2.2-0.7
					c0-0.7,0.4-1.8,0.4-3.3s0-2.9,0-4.4c0-5.9,0-10.2-0.4-13.2c-0.4-2.9-0.4-4.8-0.4-5.9c0.7,0,1.8,0.4,2.9,0.4s2.9,0,5.1,0
					c2.6,0,4.4,0,5.9,0c1.1,0,2.2-0.4,2.9-0.4c0,0.7-0.4,1.5-0.4,2.9s-0.4,2.9-0.4,4.4c0,1.8,0,3.7,0,5.5c0,1.8,0,3.7,0,5.5v3.7
					c0,1.8,0,3.7,0,5.1s0,2.6,0.4,3.3c-4.8,1.5-9.5,2.6-14.6,3.3c-4.8,0.7-9.9,1.1-14.6,1.1c-6.2,0-12.1-0.7-17.2-2.6
					c-5.1-1.5-9.9-4-13.5-7.3c-3.7-3.3-7-7-8.8-11.3c-2.2-4.4-3.3-9.5-3.3-15c0-7,1.1-12.8,3.3-17.9c2.2-5.1,5.5-9.5,9.5-12.8
					s8.8-5.9,14.3-7.7c5.5-1.8,11.3-2.6,17.9-2.6c5.5,0,10.2,0.7,14.3,1.8c4,1.1,8,2.6,12.1,4.8c-0.7,1.8-1.1,3.7-1.8,5.5
					c-0.4,1.8-1.1,3.7-1.5,5.5h-1.5C-67.9,977.8-70.8,975.3-74.1,973.1z"/>
				<path fill="#5B7500" d="M-41.5,978.9c0-4.8-0.4-9.5-0.7-13.9c3.3,0,6.6,0,9.5,0.4c3.3,0,6.6,0.4,9.5,0.4c5.5,0,10.2,0,14.3,0
					c4,0,7-0.4,8.4-0.4c-0.4,1.1-0.4,2.6-0.4,4.4c0,1.1,0,2.2,0,2.6c0,0.7,0,1.5,0.4,2.2c-2.2,0-4.4-0.4-7-0.4s-4.8-0.4-7.3-0.4
					c-2.2,0-4.4-0.4-6.2-0.4c-1.8,0-3.3,0-4,0c-0.4,4-0.4,8-0.4,11.7c0,4,0,7.7,0,11.7c4.8,0,9.1,0,12.8-0.4c3.7,0,7.7-0.4,11.7-0.7
					c-0.4,1.1-0.4,2.2-0.4,2.9c0,0.7,0,1.5,0,2.2s0,1.1,0,1.8s0.4,1.5,0.4,2.6c-8.4-0.7-16.5-1.1-24.5-1.1c0,2.2,0,4.8,0,7
					s0,4.8,0,7c0,4.8,0,9.1,0.4,13.5c4,0,8.4,0,12.4-0.4c4-0.4,8.4-0.7,12.4-1.1c0,0.7-0.4,1.5-0.4,2.2c0,0.7,0,1.5,0,2.6
					s0,2.2,0,2.6c0,0.7,0,1.1,0.4,1.5c-1.8,0-4.4,0-7.3,0s-7,0-11.7,0c-4.4,0-8,0-10.6,0s-4.8,0-6.6,0c-1.5,0-2.9,0-3.7,0
					c-0.7,0-1.5,0-2.2,0c0.4-4.4,0.4-9.1,0.7-13.9c0-4.8,0.4-9.9,0.4-16.1v-14.6C-41.2,989.2-41.5,983.7-41.5,978.9z"/>
				<path fill="#5B7500" d="M107,1032c-0.4,1.5-0.7,2.9-0.7,4.8c-5.9,2.9-13.2,4.4-22.3,4.4c-6.2,0-12.1-0.7-16.8-2.6
					c-5.1-1.8-9.1-4.4-12.4-7.7c-3.3-3.3-6.2-7-8-11.3c-1.8-4.4-2.6-9.1-2.6-14.3c0-7.7,1.1-13.9,3.7-19c2.2-5.1,5.5-9.5,9.5-12.8
					s8.4-5.9,13.9-7.3c5.1-1.5,10.6-2.2,16.5-2.2c1.8,0,4,0,5.9,0.4c2.2,0.4,4,0.7,6.2,1.1c1.8,0.4,3.7,1.1,5.5,1.8s3.3,1.5,4.4,2.2
					c-0.7,1.8-1.5,3.7-1.8,5.5c-0.4,1.8-0.7,3.7-0.7,5.5h-1.5c-2.9-3.7-5.5-5.9-8.4-7.3s-6.2-2.2-10.2-2.2c-2.9,0-5.9,0.7-8.8,1.8
					c-2.9,1.5-5.5,3.3-8,5.9s-4.4,6.2-5.9,10.2c-1.5,4-2.2,9.1-2.2,15c0,5.5,0.7,10.2,2.2,14.3c1.5,4,3.7,7.3,5.9,9.5
					c2.6,2.6,5.1,4.4,8.4,5.5c2.9,1.1,6.2,1.8,9.1,1.8c1.8,0,3.7-0.4,5.5-0.7c1.8-0.4,3.7-1.1,5.5-1.5c1.8-0.7,3.3-1.5,5.1-2.6
					c1.5-1.1,2.9-2.2,4-3.3l1.5,0.7C107.7,1028.7,107.4,1030.5,107,1032z"/>
				<path fill="#5B7500" d="M123.5,978.9c0-4.8-0.4-9.5-0.7-13.9c3.3,0,6.6,0,9.5,0.4c3.3,0,6.6,0.4,9.5,0.4c5.5,0,10.2,0,14.3,0
					c4,0,7-0.4,8.4-0.4c-0.4,1.1-0.4,2.6-0.4,4.4c0,1.1,0,2.2,0,2.6c0,0.7,0,1.5,0.4,2.2c-2.2,0-4.4-0.4-7-0.4
					c-2.6,0-4.8-0.4-7.3-0.4c-2.2,0-4.4-0.4-6.2-0.4s-3.3,0-4,0c-0.4,4-0.4,8-0.4,11.7c0,4,0,7.7,0,11.7c4.8,0,9.1,0,12.8-0.4
					c3.7,0,7.7-0.4,12.1-0.7c-0.4,1.1-0.4,2.2-0.4,2.9c0,0.7,0,1.5,0,2.2s0,1.1,0,1.8s0.4,1.5,0.4,2.6c-8.4-0.7-16.5-1.1-24.5-1.1
					c0,2.2,0,4.8,0,7s0,4.8,0,7c0,4.8,0,9.1,0.4,13.5c4,0,8.4,0,12.4-0.4c4-0.4,8.4-0.7,12.4-1.1c0,0.7-0.4,1.5-0.4,2.2
					c0,0.7,0,1.5,0,2.6s0,2.2,0,2.6c0,0.7,0,1.1,0.4,1.5c-1.8,0-4.4,0-7.3,0s-7,0-11.7,0c-4.4,0-8,0-10.6,0c-2.6,0-4.8,0-6.6,0
					c-1.8,0-2.9,0-3.7,0s-1.5,0-2.2,0c0.4-4.4,0.4-9.1,0.7-13.9c0-4.8,0.4-9.9,0.4-16.1v-14.6C123.8,989.2,123.8,983.7,123.5,978.9z
					"/>
				<path fill="#5B7500" d="M182.7,973.8c0-3.3-0.4-6.6-0.4-9.1c2.2,0.4,3.7,0.4,4.8,0.4c1.1,0,2.9,0,4.8-0.4
					c8,8.8,15.7,17.6,23.4,26c7.7,8.4,15.7,17.2,23.8,26v-9.5v-10.6c0-3.7,0-7,0-10.6c0-3.3,0-6.6,0-9.5c0-2.9,0-5.5-0.4-7.3
					c0-2.2-0.4-3.7-0.4-4.4c2.2,0.4,3.7,0.4,4.8,0.4c1.1,0,2.9,0,4.8-0.4c-0.4,6.6-0.7,12.4-0.7,17.9c-0.4,5.5-0.4,10.2-0.4,15
					c0,4.8-0.4,9.5-0.4,13.9c0,4.8,0,9.5,0,14.6v13.2c-1.5,0-2.9-0.4-4.4-0.4c-1.5,0-2.9,0-4.4,0.4c-15-17.6-30.7-34.8-47.6-52.3
					c0,2.2,0,4,0,6.2c0,2.2,0,4.4,0,6.6v12.4c0,4.4,0,8,0,11c0,2.9,0,5.5,0,7.7c0,2.2,0,3.7,0.4,5.1c0,1.5,0,2.6,0.4,3.3
					c-0.7,0-1.8-0.4-2.6-0.4c-0.7,0-1.8,0-2.6,0c-1.8,0-3.3,0-5.1,0.4c0-0.7,0.4-2.6,0.4-6.2c0.4-3.7,0.4-8,0.7-12.8
					c0.4-5.1,0.4-10.6,0.7-16.5c0-5.9,0.4-11.7,0.4-17.2C183.1,981.5,182.7,977.5,182.7,973.8z"/>
				<path fill="#5B7500" d="M281.9,976.7c0-1.8,0-2.9-0.4-3.7c-1.1,0-2.6,0-4,0c-1.5,0-3.3,0-5.1,0.4c-1.8,0-3.7,0.4-5.5,0.4
					c-1.8,0-3.7,0.4-5.1,0.7c0-0.7,0.4-1.5,0.4-2.6c0-0.7,0-1.5,0-2.6c0-1.1,0-1.5,0-2.6c0-0.7-0.4-1.5-0.4-2.6c2.6,0,4.8,0,6.6,0.4
					c1.8,0,4,0,6.2,0c2.2,0,4.4,0,6.6,0c2.6,0,5.5,0,8.8,0s6.2,0,8.8,0c2.6,0,4.8,0,6.6,0c2.2,0,4,0,5.9,0c1.8,0,4,0,6.2-0.4
					c0,0.7-0.4,1.5-0.4,2.6c0,0.7,0,1.5,0,2.6c0,1.1,0,1.5,0,2.6c0,0.7,0.4,1.5,0.4,2.6c-1.5-0.4-2.9-0.4-4.8-0.7
					c-1.8,0-3.7-0.4-5.5-0.4c-1.8,0-3.3-0.4-5.1-0.4c-1.5,0-2.9,0-4,0c0,0.4,0,0.7,0,1.5c0,0.7,0,1.5,0,2.2v5.9v27.1
					c0,5.9,0,11.3,0.4,16.1c0,4.8,0.4,9.1,0.7,13.9c-1.1,0-2.6-0.4-4-0.4c-1.5,0-2.9,0-4.8,0c-1.8,0-3.3,0-4.8,0c-1.5,0-2.9,0-4,0.4
					c0.4-4.4,0.4-9.1,0.7-13.9c0-4.8,0.4-9.9,0.4-16.1v-27.1C281.9,980.4,281.9,978.6,281.9,976.7z"/>
				<path fill="#5B7500" d="M330.9,978.9c0-4.8-0.4-9.5-0.7-13.9c3.3,0,6.6,0,9.5,0.4c3.3,0,6.6,0.4,9.5,0.4c5.5,0,10.2,0,14.3,0
					c4,0,7-0.4,8.4-0.4c-0.4,1.1-0.4,2.6-0.4,4.4c0,1.1,0,2.2,0,2.6c0,0.7,0,1.5,0.4,2.2c-2.2,0-4.4-0.4-7-0.4
					c-2.6,0-4.8-0.4-7.3-0.4c-2.2,0-4.4-0.4-6.2-0.4c-1.8,0-3.3,0-4,0c-0.4,4-0.4,8-0.4,11.7c0,4,0,7.7,0,11.7c4.8,0,9.1,0,12.8-0.4
					c3.7,0,7.7-0.4,12.1-0.7c-0.4,1.1-0.4,2.2-0.4,2.9c0,0.7,0,1.5,0,2.2s0,1.1,0,1.8s0.4,1.5,0.4,2.6c-8.4-0.7-16.5-1.1-24.5-1.1
					c0,2.2,0,4.8,0,7s0,4.8,0,7c0,4.8,0,9.1,0.4,13.5c4,0,8.4,0,12.4-0.4c4-0.4,8.4-0.7,12.4-1.1c0,0.7-0.4,1.5-0.4,2.2
					c0,0.7,0,1.5,0,2.6s0,2.2,0,2.6c0,0.7,0,1.1,0.4,1.5c-1.8,0-4.4,0-7.3,0c-2.9,0-7,0-11.7,0c-4.4,0-8,0-10.6,0
					c-2.6,0-4.8,0-6.6,0c-1.5,0-2.9,0-3.7,0s-1.5,0-2.2,0c0.4-4.4,0.4-9.1,0.7-13.9c0-4.8,0.4-9.9,0.4-16.1v-14.6
					C331.3,989.2,331.3,983.7,330.9,978.9z"/>
				<path fill="#5B7500" d="M405.5,1005.3v4.4c0,5.9,0,11.3,0.4,16.1c0,4.8,0.4,9.1,0.7,13.9c-1.1,0-2.6-0.4-4-0.4
					c-1.5,0-2.9,0-4.8,0c-1.8,0-3.3,0-4.8,0c-1.5,0-2.9,0-4,0.4c0.4-4.4,0.4-9.1,0.7-13.9c0-4.8,0.4-9.9,0.4-16.1V995
					c0-5.9,0-11.3-0.4-16.1c0-4.8-0.4-9.5-0.7-13.9c1.1,0,2.6,0.4,4,0.4c1.5,0,2.9,0,4.8,0c1.8,0,4,0,6.6-0.4c2.6,0,5.5-0.4,9.1-0.4
					c2.9,0,5.1,0,7,0.4c1.8,0,3.7,0.4,5.1,0.7c1.5,0.4,2.6,0.7,3.7,1.1c1.1,0.4,2.2,1.1,2.9,1.8c2.2,1.5,4,3.7,5.1,5.9
					c1.1,2.2,1.8,5.1,1.8,8.4c0,5.1-1.5,9.5-4.4,12.8c-2.9,3.3-7,5.9-12.4,7c3.3,6.2,7.3,12.4,11.3,18.3c4,6.2,8,12.1,12.1,18.3
					c-1.8,0-3.3-0.4-4.8-0.4c-1.5,0-3.3,0-4.8,0c-1.8,0-3.3,0-5.1,0c-1.5,0-3.3,0-5.1,0.4l-19.4-34.4h-1.1V1005.3z M421.6,977.8
					c-0.7-1.8-1.8-3.3-2.9-4.4c-1.5-1.1-2.9-1.5-5.1-1.8c-2.2-0.4-4.8-0.4-7.7-0.4c-0.4,9.9-0.4,19.8-0.4,29.6c0.4,0,0.7,0,1.1,0
					c0.4,0,0.7,0,1.1,0c4.8,0,8.4-1.5,11-4c2.6-2.6,3.7-6.6,3.7-11.7C422.7,982.2,422.4,979.7,421.6,977.8z"/>
			</g>
		</g>
		<g>
			<g>
				<path fill="#A57536" d="M484.6,674.2c-7,21.6-53.4,36.6-61.5,6.2C434.4,658.1,466.3,664.3,484.6,674.2z"/>
				<path fill="#83A80D" d="M463.7,745.5c-31.5,24.5-95.5,25.6-102.4-20.9C394.2,687,445.1,719.5,463.7,745.5z"/>
				<path fill="#83A80D" d="M439.6,606.1c-1.8,39.9-41,83.4-83.8,60C353.2,621.1,388,606.5,439.6,606.1z"/>
				<path fill="#A57536" d="M440.3,823.8c-22,3.7-33.7-4.8-46.1-12.8c-0.4-14.3-5.9-12.8-2.2-24.1
					C416.2,776.3,435.9,798.2,440.3,823.8z"/>
				<path fill="#A57536" d="M402.3,540.6c1.5,28.2-2.9,52-32.6,55.2C353.6,567.4,378.5,546.9,402.3,540.6z"/>
				<path fill="#83A80D" d="M377.7,854.2c-39.9-2.6-82.3-41-60-83.8C365.3,764.5,376.3,803.7,377.7,854.2z"/>
				<path fill="#83A80D" d="M310.1,622.2c-43.5-20.5-16.1-86.3,17.9-98.4C348.8,553.8,351.4,616.4,310.1,622.2z"/>
				<path fill="#A57536" d="M266.2,564.4c-27.4-1.5-19.8-41.3-12.4-57.4C276,506.6,288.5,555.3,266.2,564.4z"/>
				<path fill="#83A80D" d="M245.3,632.1c-47.2,5.1-58.9-32.9-60-83.8C225.5,550.5,267.6,588.6,245.3,632.1z"/>
				<path fill="#A57536" d="M174.7,618.2c-27.8,13.9-46.5-11-52-36.2C151.6,580.2,173.2,587.1,174.7,618.2z"/>
			</g>
			<g>
				<path fill="#A57536" d="M-617.7,185c2.2,22.7,43.9,47.2,58.9,19.4C-565.4,179.9-597.6,179.2-617.7,185z"/>
				<path fill="#83A80D" d="M-613,258.9c25.2,30.7,87.4,45.7,104.3,1.8C-532.1,216.9-589.2,237.7-613,258.9z"/>
				<path fill="#83A80D" d="M-559.2,128.3c-7,39.5,22,90.4,68.8,76.8C-478,161.6-508.7,140-559.2,128.3z"/>
				<path fill="#A57536" d="M-607.1,340.5c20.5,8.4,34,2.6,47.9-2.6c3.7-13.9,8.4-11.3,7.7-23C-573.1,299.5-597.6,316.4-607.1,340.5
					z"/>
				<path fill="#A57536" d="M-508.4,72.4c-7.3,27.4-8.4,51.6,19.8,60.7C-466.6,108.9-486.8,83.7-508.4,72.4z"/>
				<path fill="#83A80D" d="M-552.6,383.7c39.5,6.2,89.3-22.3,76.8-68.8C-521.2,298.8-540.2,334.7-552.6,383.7z"/>
				<path fill="#83A80D" d="M-436.3,172.2c46.8-10.6,34.4-80.9,4-100.2C-459,96.9-475.4,157.2-436.3,172.2z"/>
				<path fill="#A57536" d="M-380.7,125.4c27.1,4.4,28.5-36.2,24.9-53.4C-377.7,66.5-400.4,111.5-380.7,125.4z"/>
				<path fill="#83A80D" d="M-375.2,196c45,15,64.8-19.4,76.8-68.8C-337.9,120.6-387.6,148.4-375.2,196z"/>
				<path fill="#A57536" d="M-312.6,190.9c24.1,19.4,47.6-0.7,58.5-24.1C-281.9,158.3-304.2,160.5-312.6,190.9z"/>
			</g>
			<g>
				<path fill="#5B7500" d="M-422.7,540.3c-30.7,0-33.3,10.6-33.3-166.8c0-172.3,9.9-155.5,30.7-155.5h34.4
					c26.3,0,35.1,1.5,35.1,7.7c0,18.7-11.7,37.3-11.7,92.2c0,127,27.8,204.9,27.8,209.6c0,16.1-26.3,13.2-40.6,13.2h-42.4V540.3z"/>
				<path fill="#5B7500" d="M-7.1,304.7c27.8,0,33.3,0,33.3,20.9c0,154.8-151.5,224.6-177.8,224.6c-18.3,0-177.4-66.2-177.4-234.1
					c0-10.6,3.3-11.3,24.5-11.3h52.7c11,0,37.7-1.8,37.7,5.9c0,8.4-1.1,16.1-1.1,32.6c0,90.7,51.6,126.2,69.9,126.2
					c27.8,0,73.2-50.5,73.2-122.2c0-12.8-3.7-20.1-3.7-31.5c0-8.4,13.2-10.6,28.9-10.6h39.9V304.7z"/>
				<path fill="#5B7500" d="M68.6,499.7c0-4.4,1.1-15,14.6-15c58.5,0,73.9-13.5,73.9-18.3c0-15.4-88.9-41.7-88.9-144.1
					c0-16.5-0.4-17.2,19.4-17.2h41.7c6.6,0,17.9-1.1,17.9,6.6c0,5.1-4.4,16.5-4.4,27.8c0,43.2,50.1,83.4,60,83.4
					c20.5,0,34-44.3,34-72.4c0-18.3-5.5-34-5.5-39.9c0-6.6,12.8-5.5,18.3-5.5h45.4c9.9,1.1,8,12.8,8,28.9
					c4.4,107.9-110.9,212.6-222.8,212.6c-11.7,0-12.1-5.5-12.1-13.9v-32.9H68.6z"/>
			</g>
			<g>
				<path fill="#5B7500" d="M-490.4,889.7c-8.8,0-28.9,14.6-28.9-92.2c0-82.3,20.1-134.6,20.1-148.2c0-11-9.1-7.7-20.9-6.2
					c-32.2,4.4-78.7,30.7-86.3,30.7c-4,0-6.6,1.5-6.6-8.8c0-11.3,12.4-57.1,19.4-67.3c4.8-7,66.6-20.1,128.8-20.1
					c73.9,0,139.8,15.7,139.8,33.3c0,16.1-22.7,51.2-27.4,51.2c-7.7,0-26.7-21.6-59.6-21.6c-28.2,0-22.7,68.8-16.1,102.1
					c18.7,95.5,54.5,134.3,54.5,141.2c0,8-62.2,6.2-68.4,6.2h-48.3V889.7z"/>
				<path fill="#5B7500" d="M-297.6,889.7c-16.8,0-25.2,11.3-25.2-110.5c0-102.1-3.7-124.8,9.1-125.1h38c7,0,15-1.8,15.7,5.1
					c1.1,5.5,1.8,12.4,11,12.4c7,0,14.6-5.9,24.5-11.7c9.5-5.5,20.5-11.3,32.9-11.3c23.4,0,42.8,16.1,42.8,36.2
					c0,25.6-26.3,41.3-39.9,41.3c-5.5,0,1.1-24.5-30.7-24.5c-38.4,0-37.3,49.8-37.3,71.7c0,73.2,17.9,104.3,17.9,110.9
					c-0.4,5.9-16.8,5.9-22,5.9h-37V889.7z"/>
				<path fill="#5B7500" d="M-157.5,781.7c0-89.3,61.5-133.2,123.3-133.2c50.5,0,93.3,22.7,93.3,66.2c0,79.4-148.2,62.6-148.2,101
					c0,17.2,34.8,30,57.8,30c75.4,0,75.4-46.1,82-46.1c7,0,8.4,19,8.4,22c0,46.8-45,73.5-100.2,73.5
					C-123.8,895.2-157.5,840.6-157.5,781.7 M-95.7,745.2c0,4,2.2,8,8.4,8c5.5,0,89.3-14.6,89.3-33.7c0-17.9-21.2-27.8-38.4-27.8
					C-74.1,691.7-95.7,723.9-95.7,745.2"/>
				<path fill="#5B7500" d="M83.6,781.7c0-89.3,61.5-133.2,123.3-133.2c50.5,0,93.3,22.7,93.3,66.2c0,79.4-148.2,62.6-148.2,101
					c0,17.2,35.1,30,57.8,30c75.4,0,75.4-46.1,82-46.1c7,0,8.4,19,8.4,22c0,46.8-45,73.5-100.2,73.5
					C117.6,895.2,83.6,840.6,83.6,781.7 M145.8,745.2c0,4,2.2,8,8.4,8c5.5,0,89.3-14.6,89.3-33.7c0-17.9-21.2-27.8-38.4-27.8
					C167.4,691.7,145.8,723.9,145.8,745.2"/>
			</g>
			<g>
				<g>
					<g>
						
							<image overflow="visible" opacity="0.75" enable-background="new    " width="363" height="408" xlink:href="B0C5CA55BA1E642D.png"  transform="matrix(0.869 0 0 0.869 -308.8474 196.2246)">
						</image>
						<g>
							<path fill="#83A80D" d="M-6.4,254.9c-23.4-27.1-58.2-56.7-58.2-56.7H-238c0,0-34.8,29.6-58.2,56.7
								C-257,290.4-276,362.1-279,420.6c20.5,39.5,114.9,94,127.7,107.2l0,0l0,0l0,0l0,0c12.8-13.2,107.2-67.7,127.7-107.2
								C-26.5,362.1-45.6,290.8-6.4,254.9z"/>
						</g>
					</g>
					<g>
						<path fill="none" d="M-37.5,255.6C-60.9,233-80.7,218-80.7,218h-140.9c0,0-20.9,16.1-43.2,37.7
							c32.2,29.3,11.3,106.8,9.1,154.8c16.8,32.6,104.6,85.2,104.6,85.2l0,0c0,0,87.8-52.7,104.6-85.2
							C-48.8,362.5-69.7,284.9-37.5,255.6z"/>
						<path fill="#FFFFFF" d="M-150.6,503.7c0,0-91.8-58.2-109-91.5l-0.4-1.1V410c0.7-12.4,2.6-26.7,4.8-42.1
							c5.9-41.7,9.9-89.3-12.4-109.4l-3.3-2.9l3.3-2.9c22-21.2,43.2-37.3,43.2-37.3l1.1-1.5h144.5l1.1,1.5c0,0,20.1,15.4,43.2,37.3
							l3.3,2.9l-3.3,2.9C-56.9,278.7-52.9,326.3-47,368c2.2,15,4,29.6,4.8,42.1v1.1l-0.4,1.1C-58,441.5-150.6,503.7-150.6,503.7z
							 M-150.6,485.8c24.5-14.6,85.2-51.2,99.5-76.5c-0.7-12.1-2.6-25.6-4.8-40.2c-5.9-42.1-9.9-89.3,12.1-113.8
							c-17.6-17.2-35.5-29.6-39.1-33.7h-137.2c-4,4-22,16.8-39.1,33.7c21.6,24.1,17.9,71.7,12.1,113.8c-2.2,14.6-4,28.2-4.8,40.2
							C-236.2,437.1-150.6,485.8-150.6,485.8z"/>
					</g>
					<g>
						
							<image overflow="visible" opacity="0.75" enable-background="new    " width="242" height="317" xlink:href="B0C5CA55BA1E6433.png"  transform="matrix(0.8657 0 0 0.8657 -250.1259 224.882)">
						</image>
						<g>
							<path fill="#FFFCEE" d="M-233.2,389.5c5.5-5.9,10.2-8.8,11.7-10.2c1.5-1.5,8.4-6.6,12.8-7.3c0,0-9.1-6.2-15.4-15.4
								c-6.2-8.8-10.2-13.9-11.7-17.9c-1.5-4-2.9-14.3-7.7-20.5c-4.8-5.9-7.3-8-7.3-8s3.7-3.3,10.6-3.7c7,0,11.3,6.2,11.3,6.2
								s3.3-5.9,11-6.2s17.2,1.5,17.2,1.5s-4.8-20.5,4-38.4c8.8-17.9,12.8-30.4,12.4-39.9s0-5.5,0-5.5s5.5,5.1,11,8.8
								s4.8,7.7,13.5,10.2c8.8,2.6,20.5,13.2,25.6,21.6c5.1,8.4,10.6,19.4,11.7,20.1c0.7,0.7,2.2,7.7,0.4,11.7c0,0,3.3,1.5,10.2,0.4
								c7-1.5,12.8-4.8,19.4-5.5c6.6-0.4,7.7,0.4,13.2-2.2c5.9-2.6,11.7-6.2,11.7-6.2s4.8-0.4,4.4,0.4c-0.4,0.7-4,10.2-4.4,16.1
								c0,5.9-2.6,14.3-4.8,20.9c-2.2,6.6-18.3,17.2-21.2,25.6c0,0,16.8-8,22.7-9.1c5.9-1.1,13.5,2.6,18.7,1.8c0,0-7,7-9.9,13.9
								c-2.9,6.6-16.5,27.4-24.1,35.1c-7.7,7.7-26.3,15.4-29.6,18.7c-3.3,3.3-20.5,12.4-20.5,12.4s-3.7,11.3-4.4,18.3
								c-0.7,7-6.6,29.6-4.4,40.6c1.8,8.8-5.5,9.1-7,9.9c-4,1.5-5.1-1.1-5.1-1.1l3.3-11.7c0,0,6.6-31.5,8.4-40.2
								c2.2-11.7-11.7-16.1-11.7-16.1l-11.3-3.3c0,0-13.2-5.1-20.9-4.8c-7.7,0.4-13.9,1.1-13.9,1.1s-12.1-0.7-18.7-6.6
								c-6.6-5.9-17.9-11.7-17.9-11.7S-238.7,395-233.2,389.5"/>
						</g>
					</g>
				</g>
				<g>
					<g>
						<defs>
							<path id="SVGID_7_" d="M-234.7,387.4c5.5-5.5,10.2-8.8,11.7-9.9c1.5-1.5,8.4-6.6,12.8-7c0,0-9.1-6.2-15.4-15
								c-6.2-8.8-9.9-13.9-11.3-17.6c-1.5-3.7-2.6-14.3-7.3-20.1c-4.4-5.9-7.3-8-7.3-8s3.7-3.3,10.6-3.3c7,0,11.3,6.2,11.3,6.2
								s3.3-5.9,11-5.9c7.7-0.4,17.2,1.5,17.2,1.5s-4.4-20.1,4.8-38c9.1-17.6,13.5-30,13.2-39.1c-0.4-9.1,0-5.5,0-5.5
								s5.5,5.1,10.6,8.8s4.4,7.7,13.5,10.2c8.8,2.6,20.1,13.2,25.2,21.6c5.1,8,10.2,19,11.3,20.1c0.7,0.7,2.2,7.7,0,11.7
								c0,0,3.3,1.5,10.2,0.4c7-1.1,12.8-4.8,19.4-5.1c6.6-0.4,7.7,0.4,13.2-1.8c5.9-2.6,12.1-6.2,12.1-6.2s4.8-0.4,4.4,0.4
								c-0.4,0.7-4.4,9.9-4.8,15.7c-0.4,5.9-2.6,13.9-5.1,20.5s-18.7,16.8-22,24.9c0,0,16.8-8,23-8.8c6.2-1.1,13.5,2.6,19,2.2
								c0,0-7.3,7-10.2,13.5c-2.9,6.6-17.2,27.1-24.9,34.4c-8,7.7-26.7,15-30.4,17.9c-3.3,2.9-17.2,12.8-17.2,12.8
								s-0.7,9.1-1.8,16.1c-0.7,7,4.8,21.6,7,32.2c-15,4.8-19,8-19,8l-20.5-9.5l13.2,0.7c0,0,5.5-23.8,7.7-32.6
								c2.6-11.7-11.3-15.7-11.3-15.7l-11.3-3.3c0,0-13.2-5.1-20.9-4.8c-7.7,0.4-14.3,1.1-14.3,1.1s-12.1-0.7-18.7-6.6
								c-6.6-5.9-17.6-11.3-17.6-11.3S-240.2,392.8-234.7,387.4"/>
						</defs>
						<clipPath id="SVGID_8_">
							<use xlink:href="#SVGID_7_"  overflow="visible"/>
						</clipPath>
						<path clip-path="url(#SVGID_8_)" fill="#7A4300" d="M97.5,6.5c-1.8,0-3.7,0.4-5.5,0.4C72.6,35.8,52.5,64.7,32,93.2
							c-20.1,28.2-40.6,56.7-62.2,83c-22,26.3-44.6,51.6-67,77.9c-22.7,26.3-33.3,61.1-58.9,86.3c-1.8,3.3,0.4,5.1,0.4,7.7
							c0.4,11-12.4,15.7-18.7,25.2c-5.5,8-12.1,22.7-12.1,22.7l5.1-1.1c0,0,10.2-7,19.8-11.3c6.6-5.5,7.3-15.4,13.2-20.9
							c4-3.7,9.5-4.4,15.4-5.1c11.7-23.4,29.6-41.3,45.7-60c9.9-11.7,18.7-26.3,26.7-40.2c15.7-27.4,30.4-56,49-84.9
							C18.1,126.5,53.2,80,85.8,35.4C93.8,24.8,107.4,14.9,97.5,6.5z M-85.1,252.4c9.9-13.2,29.3-38,43.9-54.5
							C-51.4,211-70.1,236.6-85.1,252.4z M-39.3,194.5c-1.1,0.7,0.7-2.2,4-4.8C-33.8,189.1-37.9,193.4-39.3,194.5z M-29.8,183.2
							C-27.6,181.4-37.5,189.1-29.8,183.2L-29.8,183.2z M-23.6,174.8C-31.3,181-21.4,173.3-23.6,174.8L-23.6,174.8z"/>
					</g>
				</g>
			</g>
		</g>
	</g>
</g>
</svg>
